<svg xmlns="http://www.w3.org/2000/svg" width="1639" height="417" fill="none"><g clip-path="url(#a)"><mask id="c" width="1639" height="417" x="0" y="0" maskUnits="userSpaceOnUse" style="mask-type:alpha"><path fill="url(#b)" d="M819.5 417c452.6 0 819.5-93.349 819.5-208.5S1272.1 0 819.5 0C366.903 0 0 93.349 0 208.5S366.903 417 819.5 417z"/></mask><g mask="url(#c)"><path stroke="#343232" stroke-width=".757" d="M4 30h-24v24H4V30zm24 0H4v24h24V30zm24 0H28v24h24V30zm24 0H52v24h24V30zm24 0H76v24h24V30zm24 0h-24v24h24V30zm24 0h-24v24h24V30zm24 0h-24v24h24V30zm24 0h-24v24h24V30zm24 0h-24v24h24V30zm24 0h-24v24h24V30zm24 0h-24v24h24V30zm24 0h-24v24h24V30zm24 0h-24v24h24V30zm24 0h-24v24h24V30zm24 0h-24v24h24V30zm24 0h-24v24h24V30zm24 0h-24v24h24V30zm24 0h-24v24h24V30zm24 0h-24v24h24V30zm24 0h-24v24h24V30zm24 0h-24v24h24V30zm24 0h-24v24h24V30zm24 0h-24v24h24V30zm24 0h-24v24h24V30zm24 0h-24v24h24V30zm24 0h-24v24h24V30zm24 0h-24v24h24V30zm24 0h-24v24h24V30zm24 0h-24v24h24V30zm24 0h-24v24h24V30zm24 0h-24v24h24V30zm24 0h-24v24h24V30zm24 0h-24v24h24V30zm24 0h-24v24h24V30zm24 0h-24v24h24V30zm24 0h-24v24h24V30zm24 0h-24v24h24V30zm24 0h-24v24h24V30zm24 0h-24v24h24V30zm24 0h-24v24h24V30zm24 0h-24v24h24V30zm24 0h-24v24h24V30zm24 0h-24v24h24V30zm24 0h-24v24h24V30zm24 0h-24v24h24V30zm24 0h-24v24h24V30zm24 0h-24v24h24V30zm24 0h-24v24h24V30zm24 0h-24v24h24V30zm24 0h-24v24h24V30zm24 0h-24v24h24V30zm24 0h-24v24h24V30zm24 0h-24v24h24V30zm24 0h-24v24h24V30zm24 0h-24v24h24V30zm24 0h-24v24h24V30zm24 0h-24v24h24V30zm24 0h-24v24h24V30zm24 0h-24v24h24V30zm24 0h-24v24h24V30zm24 0h-24v24h24V30zm24 0h-24v24h24V30zm24 0h-24v24h24V30zm24 0h-24v24h24V30zm24 0h-24v24h24V30zm24 0h-24v24h24V30zm24 0h-24v24h24V30zm24 0h-24v24h24V30zm24 0h-24v24h24V30zM4 54h-24v24H4V54zm24 0H4v24h24V54zm24 0H28v24h24V54zm24 0H52v24h24V54zm24 0H76v24h24V54zm24 0h-24v24h24V54zm24 0h-24v24h24V54zm24 0h-24v24h24V54zm24 0h-24v24h24V54zm24 0h-24v24h24V54zm24 0h-24v24h24V54zm24 0h-24v24h24V54zm24 0h-24v24h24V54zm24 0h-24v24h24V54zm24 0h-24v24h24V54zm24 0h-24v24h24V54zm24 0h-24v24h24V54zm24 0h-24v24h24V54zm24 0h-24v24h24V54zm24 0h-24v24h24V54zm24 0h-24v24h24V54zm24 0h-24v24h24V54zm24 0h-24v24h24V54zm24 0h-24v24h24V54zm24 0h-24v24h24V54zm24 0h-24v24h24V54zm24 0h-24v24h24V54zm24 0h-24v24h24V54zm24 0h-24v24h24V54zm24 0h-24v24h24V54zm24 0h-24v24h24V54zm24 0h-24v24h24V54zm24 0h-24v24h24V54zm24 0h-24v24h24V54zm24 0h-24v24h24V54zm24 0h-24v24h24V54zm24 0h-24v24h24V54zm24 0h-24v24h24V54zm24 0h-24v24h24V54zm24 0h-24v24h24V54zm24 0h-24v24h24V54zm24 0h-24v24h24V54zm24 0h-24v24h24V54zm24 0h-24v24h24V54zm24 0h-24v24h24V54zm24 0h-24v24h24V54zm24 0h-24v24h24V54zm24 0h-24v24h24V54zm24 0h-24v24h24V54zm24 0h-24v24h24V54zm24 0h-24v24h24V54zm24 0h-24v24h24V54zm24 0h-24v24h24V54zm24 0h-24v24h24V54zm24 0h-24v24h24V54zm24 0h-24v24h24V54zm24 0h-24v24h24V54zm24 0h-24v24h24V54zm24 0h-24v24h24V54zm24 0h-24v24h24V54zm24 0h-24v24h24V54zm24 0h-24v24h24V54zm24 0h-24v24h24V54zm24 0h-24v24h24V54zm24 0h-24v24h24V54zm24 0h-24v24h24V54zm24 0h-24v24h24V54zm24 0h-24v24h24V54zm24 0h-24v24h24V54zm24 0h-24v24h24V54zM4 78h-24v24H4V78zm24 0H4v24h24V78zm24 0H28v24h24V78zm24 0H52v24h24V78zm24 0H76v24h24V78zm24 0h-24v24h24V78zm24 0h-24v24h24V78zm24 0h-24v24h24V78zm24 0h-24v24h24V78zm24 0h-24v24h24V78zm24 0h-24v24h24V78zm24 0h-24v24h24V78zm24 0h-24v24h24V78zm24 0h-24v24h24V78zm24 0h-24v24h24V78zm24 0h-24v24h24V78zm24 0h-24v24h24V78zm24 0h-24v24h24V78zm24 0h-24v24h24V78zm24 0h-24v24h24V78zm24 0h-24v24h24V78zm24 0h-24v24h24V78zm24 0h-24v24h24V78zm24 0h-24v24h24V78zm24 0h-24v24h24V78zm24 0h-24v24h24V78zm24 0h-24v24h24V78zm24 0h-24v24h24V78zm24 0h-24v24h24V78zm24 0h-24v24h24V78zm24 0h-24v24h24V78zm24 0h-24v24h24V78zm24 0h-24v24h24V78zm24 0h-24v24h24V78zm24 0h-24v24h24V78zm24 0h-24v24h24V78zm24 0h-24v24h24V78zm24 0h-24v24h24V78zm24 0h-24v24h24V78zm24 0h-24v24h24V78zm24 0h-24v24h24V78zm24 0h-24v24h24V78zm24 0h-24v24h24V78zm24 0h-24v24h24V78zm24 0h-24v24h24V78zm24 0h-24v24h24V78zm24 0h-24v24h24V78zm24 0h-24v24h24V78zm24 0h-24v24h24V78zm24 0h-24v24h24V78zm24 0h-24v24h24V78zm24 0h-24v24h24V78zm24 0h-24v24h24V78zm24 0h-24v24h24V78zm24 0h-24v24h24V78zm24 0h-24v24h24V78zm24 0h-24v24h24V78zm24 0h-24v24h24V78zm24 0h-24v24h24V78zm24 0h-24v24h24V78zm24 0h-24v24h24V78zm24 0h-24v24h24V78zm24 0h-24v24h24V78zm24 0h-24v24h24V78zm24 0h-24v24h24V78zm24 0h-24v24h24V78zm24 0h-24v24h24V78zm24 0h-24v24h24V78zm24 0h-24v24h24V78zm24 0h-24v24h24V78zM4 102h-24v24H4v-24zm24 0H4v24h24v-24zm24 0H28v24h24v-24zm24 0H52v24h24v-24zm24 0H76v24h24v-24zm24 0h-24v24h24v-24zm24 0h-24v24h24v-24zm24 0h-24v24h24v-24zm24 0h-24v24h24v-24zm24 0h-24v24h24v-24zm24 0h-24v24h24v-24zm24 0h-24v24h24v-24zm24 0h-24v24h24v-24zm24 0h-24v24h24v-24zm24 0h-24v24h24v-24zm24 0h-24v24h24v-24zm24 0h-24v24h24v-24zm24 0h-24v24h24v-24zm24 0h-24v24h24v-24zm24 0h-24v24h24v-24zm24 0h-24v24h24v-24zm24 0h-24v24h24v-24zm24 0h-24v24h24v-24zm24 0h-24v24h24v-24zm24 0h-24v24h24v-24zm24 0h-24v24h24v-24zm24 0h-24v24h24v-24zm24 0h-24v24h24v-24zm24 0h-24v24h24v-24zm24 0h-24v24h24v-24zm24 0h-24v24h24v-24zm24 0h-24v24h24v-24zm24 0h-24v24h24v-24zm24 0h-24v24h24v-24zm24 0h-24v24h24v-24zm24 0h-24v24h24v-24zm24 0h-24v24h24v-24zm24 0h-24v24h24v-24zm24 0h-24v24h24v-24zm24 0h-24v24h24v-24zm24 0h-24v24h24v-24zm24 0h-24v24h24v-24zm24 0h-24v24h24v-24zm24 0h-24v24h24v-24zm24 0h-24v24h24v-24zm24 0h-24v24h24v-24zm24 0h-24v24h24v-24zm24 0h-24v24h24v-24zm24 0h-24v24h24v-24zm24 0h-24v24h24v-24zm24 0h-24v24h24v-24zm24 0h-24v24h24v-24zm24 0h-24v24h24v-24zm24 0h-24v24h24v-24zm24 0h-24v24h24v-24zm24 0h-24v24h24v-24zm24 0h-24v24h24v-24zm24 0h-24v24h24v-24zm24 0h-24v24h24v-24zm24 0h-24v24h24v-24zm24 0h-24v24h24v-24zm24 0h-24v24h24v-24zm24 0h-24v24h24v-24zm24 0h-24v24h24v-24zm24 0h-24v24h24v-24zm24 0h-24v24h24v-24zm24 0h-24v24h24v-24zm24 0h-24v24h24v-24zm24 0h-24v24h24v-24zm24 0h-24v24h24v-24zM4 126h-24v24H4v-24zm24 0H4v24h24v-24zm24 0H28v24h24v-24zm24 0H52v24h24v-24zm24 0H76v24h24v-24zm24 0h-24v24h24v-24zm24 0h-24v24h24v-24zm24 0h-24v24h24v-24zm24 0h-24v24h24v-24zm24 0h-24v24h24v-24zm24 0h-24v24h24v-24zm24 0h-24v24h24v-24zm24 0h-24v24h24v-24zm24 0h-24v24h24v-24zm24 0h-24v24h24v-24zm24 0h-24v24h24v-24zm24 0h-24v24h24v-24zm24 0h-24v24h24v-24zm24 0h-24v24h24v-24zm24 0h-24v24h24v-24zm24 0h-24v24h24v-24zm24 0h-24v24h24v-24zm24 0h-24v24h24v-24zm24 0h-24v24h24v-24zm24 0h-24v24h24v-24zm24 0h-24v24h24v-24zm24 0h-24v24h24v-24zm24 0h-24v24h24v-24zm24 0h-24v24h24v-24zm24 0h-24v24h24v-24zm24 0h-24v24h24v-24zm24 0h-24v24h24v-24zm24 0h-24v24h24v-24zm24 0h-24v24h24v-24zm24 0h-24v24h24v-24zm24 0h-24v24h24v-24zm24 0h-24v24h24v-24zm24 0h-24v24h24v-24zm24 0h-24v24h24v-24zm24 0h-24v24h24v-24zm24 0h-24v24h24v-24zm24 0h-24v24h24v-24zm24 0h-24v24h24v-24zm24 0h-24v24h24v-24zm24 0h-24v24h24v-24zm24 0h-24v24h24v-24zm24 0h-24v24h24v-24zm24 0h-24v24h24v-24zm24 0h-24v24h24v-24zm24 0h-24v24h24v-24zm24 0h-24v24h24v-24zm24 0h-24v24h24v-24zm24 0h-24v24h24v-24zm24 0h-24v24h24v-24zm24 0h-24v24h24v-24zm24 0h-24v24h24v-24zm24 0h-24v24h24v-24zm24 0h-24v24h24v-24zm24 0h-24v24h24v-24zm24 0h-24v24h24v-24zm24 0h-24v24h24v-24zm24 0h-24v24h24v-24zm24 0h-24v24h24v-24zm24 0h-24v24h24v-24zm24 0h-24v24h24v-24zm24 0h-24v24h24v-24zm24 0h-24v24h24v-24zm24 0h-24v24h24v-24zm24 0h-24v24h24v-24zm24 0h-24v24h24v-24zM4 150h-24v24H4v-24zm24 0H4v24h24v-24zm24 0H28v24h24v-24zm24 0H52v24h24v-24zm24 0H76v24h24v-24zm24 0h-24v24h24v-24zm24 0h-24v24h24v-24zm24 0h-24v24h24v-24zm24 0h-24v24h24v-24zm24 0h-24v24h24v-24zm24 0h-24v24h24v-24zm24 0h-24v24h24v-24zm24 0h-24v24h24v-24zm24 0h-24v24h24v-24zm24 0h-24v24h24v-24zm24 0h-24v24h24v-24zm24 0h-24v24h24v-24zm24 0h-24v24h24v-24zm24 0h-24v24h24v-24zm24 0h-24v24h24v-24zm24 0h-24v24h24v-24zm24 0h-24v24h24v-24zm24 0h-24v24h24v-24zm24 0h-24v24h24v-24zm24 0h-24v24h24v-24zm24 0h-24v24h24v-24zm24 0h-24v24h24v-24zm24 0h-24v24h24v-24zm24 0h-24v24h24v-24zm24 0h-24v24h24v-24zm24 0h-24v24h24v-24zm24 0h-24v24h24v-24zm24 0h-24v24h24v-24zm24 0h-24v24h24v-24zm24 0h-24v24h24v-24zm24 0h-24v24h24v-24zm24 0h-24v24h24v-24zm24 0h-24v24h24v-24zm24 0h-24v24h24v-24zm24 0h-24v24h24v-24zm24 0h-24v24h24v-24zm24 0h-24v24h24v-24zm24 0h-24v24h24v-24zm24 0h-24v24h24v-24zm24 0h-24v24h24v-24zm24 0h-24v24h24v-24zm24 0h-24v24h24v-24zm24 0h-24v24h24v-24zm24 0h-24v24h24v-24zm24 0h-24v24h24v-24zm24 0h-24v24h24v-24zm24 0h-24v24h24v-24zm24 0h-24v24h24v-24zm24 0h-24v24h24v-24zm24 0h-24v24h24v-24zm24 0h-24v24h24v-24zm24 0h-24v24h24v-24zm24 0h-24v24h24v-24zm24 0h-24v24h24v-24zm24 0h-24v24h24v-24zm24 0h-24v24h24v-24zm24 0h-24v24h24v-24zm24 0h-24v24h24v-24zm24 0h-24v24h24v-24zm24 0h-24v24h24v-24zm24 0h-24v24h24v-24zm24 0h-24v24h24v-24zm24 0h-24v24h24v-24zm24 0h-24v24h24v-24zm24 0h-24v24h24v-24zM4 174h-24v24H4v-24zm24 0H4v24h24v-24zm24 0H28v24h24v-24zm24 0H52v24h24v-24zm24 0H76v24h24v-24zm24 0h-24v24h24v-24zm24 0h-24v24h24v-24zm24 0h-24v24h24v-24zm24 0h-24v24h24v-24zm24 0h-24v24h24v-24zm24 0h-24v24h24v-24zm24 0h-24v24h24v-24zm24 0h-24v24h24v-24zm24 0h-24v24h24v-24zm24 0h-24v24h24v-24zm24 0h-24v24h24v-24zm24 0h-24v24h24v-24zm24 0h-24v24h24v-24zm24 0h-24v24h24v-24zm24 0h-24v24h24v-24zm24 0h-24v24h24v-24zm24 0h-24v24h24v-24zm24 0h-24v24h24v-24zm24 0h-24v24h24v-24zm24 0h-24v24h24v-24zm24 0h-24v24h24v-24zm24 0h-24v24h24v-24zm24 0h-24v24h24v-24zm24 0h-24v24h24v-24zm24 0h-24v24h24v-24zm24 0h-24v24h24v-24zm24 0h-24v24h24v-24zm24 0h-24v24h24v-24zm24 0h-24v24h24v-24zm24 0h-24v24h24v-24zm24 0h-24v24h24v-24zm24 0h-24v24h24v-24zm24 0h-24v24h24v-24zm24 0h-24v24h24v-24zm24 0h-24v24h24v-24zm24 0h-24v24h24v-24zm24 0h-24v24h24v-24zm24 0h-24v24h24v-24zm24 0h-24v24h24v-24zm24 0h-24v24h24v-24zm24 0h-24v24h24v-24zm24 0h-24v24h24v-24zm24 0h-24v24h24v-24zm24 0h-24v24h24v-24zm24 0h-24v24h24v-24zm24 0h-24v24h24v-24zm24 0h-24v24h24v-24zm24 0h-24v24h24v-24zm24 0h-24v24h24v-24zm24 0h-24v24h24v-24zm24 0h-24v24h24v-24zm24 0h-24v24h24v-24zm24 0h-24v24h24v-24zm24 0h-24v24h24v-24zm24 0h-24v24h24v-24zm24 0h-24v24h24v-24zm24 0h-24v24h24v-24zm24 0h-24v24h24v-24zm24 0h-24v24h24v-24zm24 0h-24v24h24v-24zm24 0h-24v24h24v-24zm24 0h-24v24h24v-24zm24 0h-24v24h24v-24zm24 0h-24v24h24v-24zm24 0h-24v24h24v-24zM4 198h-24v24H4v-24zm24 0H4v24h24v-24zm24 0H28v24h24v-24zm24 0H52v24h24v-24zm24 0H76v24h24v-24zm24 0h-24v24h24v-24zm24 0h-24v24h24v-24zm24 0h-24v24h24v-24zm24 0h-24v24h24v-24zm24 0h-24v24h24v-24zm24 0h-24v24h24v-24zm24 0h-24v24h24v-24zm24 0h-24v24h24v-24zm24 0h-24v24h24v-24zm24 0h-24v24h24v-24zm24 0h-24v24h24v-24zm24 0h-24v24h24v-24zm24 0h-24v24h24v-24zm24 0h-24v24h24v-24zm24 0h-24v24h24v-24zm24 0h-24v24h24v-24zm24 0h-24v24h24v-24zm24 0h-24v24h24v-24zm24 0h-24v24h24v-24zm24 0h-24v24h24v-24zm24 0h-24v24h24v-24zm24 0h-24v24h24v-24zm24 0h-24v24h24v-24zm24 0h-24v24h24v-24zm24 0h-24v24h24v-24zm24 0h-24v24h24v-24zm24 0h-24v24h24v-24zm24 0h-24v24h24v-24zm24 0h-24v24h24v-24zm24 0h-24v24h24v-24zm24 0h-24v24h24v-24zm24 0h-24v24h24v-24zm24 0h-24v24h24v-24zm24 0h-24v24h24v-24zm24 0h-24v24h24v-24zm24 0h-24v24h24v-24zm24 0h-24v24h24v-24zm24 0h-24v24h24v-24zm24 0h-24v24h24v-24zm24 0h-24v24h24v-24zm24 0h-24v24h24v-24zm24 0h-24v24h24v-24zm24 0h-24v24h24v-24zm24 0h-24v24h24v-24zm24 0h-24v24h24v-24zm24 0h-24v24h24v-24zm24 0h-24v24h24v-24zm24 0h-24v24h24v-24zm24 0h-24v24h24v-24zm24 0h-24v24h24v-24zm24 0h-24v24h24v-24zm24 0h-24v24h24v-24zm24 0h-24v24h24v-24zm24 0h-24v24h24v-24zm24 0h-24v24h24v-24zm24 0h-24v24h24v-24zm24 0h-24v24h24v-24zm24 0h-24v24h24v-24zm24 0h-24v24h24v-24zm24 0h-24v24h24v-24zm24 0h-24v24h24v-24zm24 0h-24v24h24v-24zm24 0h-24v24h24v-24zm24 0h-24v24h24v-24zm24 0h-24v24h24v-24zM4 222h-24v24H4v-24zm24 0H4v24h24v-24zm24 0H28v24h24v-24zm24 0H52v24h24v-24zm24 0H76v24h24v-24zm24 0h-24v24h24v-24zm24 0h-24v24h24v-24zm24 0h-24v24h24v-24zm24 0h-24v24h24v-24zm24 0h-24v24h24v-24zm24 0h-24v24h24v-24zm24 0h-24v24h24v-24zm24 0h-24v24h24v-24zm24 0h-24v24h24v-24zm24 0h-24v24h24v-24zm24 0h-24v24h24v-24zm24 0h-24v24h24v-24zm24 0h-24v24h24v-24zm24 0h-24v24h24v-24zm24 0h-24v24h24v-24zm24 0h-24v24h24v-24zm24 0h-24v24h24v-24zm24 0h-24v24h24v-24zm24 0h-24v24h24v-24zm24 0h-24v24h24v-24zm24 0h-24v24h24v-24zm24 0h-24v24h24v-24zm24 0h-24v24h24v-24zm24 0h-24v24h24v-24zm24 0h-24v24h24v-24zm24 0h-24v24h24v-24zm24 0h-24v24h24v-24zm24 0h-24v24h24v-24zm24 0h-24v24h24v-24zm24 0h-24v24h24v-24zm24 0h-24v24h24v-24zm24 0h-24v24h24v-24zm24 0h-24v24h24v-24zm24 0h-24v24h24v-24zm24 0h-24v24h24v-24zm24 0h-24v24h24v-24zm24 0h-24v24h24v-24zm24 0h-24v24h24v-24zm24 0h-24v24h24v-24zm24 0h-24v24h24v-24zm24 0h-24v24h24v-24zm24 0h-24v24h24v-24zm24 0h-24v24h24v-24zm24 0h-24v24h24v-24zm24 0h-24v24h24v-24zm24 0h-24v24h24v-24zm24 0h-24v24h24v-24zm24 0h-24v24h24v-24zm24 0h-24v24h24v-24zm24 0h-24v24h24v-24zm24 0h-24v24h24v-24zm24 0h-24v24h24v-24zm24 0h-24v24h24v-24zm24 0h-24v24h24v-24zm24 0h-24v24h24v-24zm24 0h-24v24h24v-24zm24 0h-24v24h24v-24zm24 0h-24v24h24v-24zm24 0h-24v24h24v-24zm24 0h-24v24h24v-24zm24 0h-24v24h24v-24zm24 0h-24v24h24v-24zm24 0h-24v24h24v-24zm24 0h-24v24h24v-24zm24 0h-24v24h24v-24zM4 246h-24v24H4v-24zm24 0H4v24h24v-24zm24 0H28v24h24v-24zm24 0H52v24h24v-24zm24 0H76v24h24v-24zm24 0h-24v24h24v-24zm24 0h-24v24h24v-24zm24 0h-24v24h24v-24zm24 0h-24v24h24v-24zm24 0h-24v24h24v-24zm24 0h-24v24h24v-24zm24 0h-24v24h24v-24zm24 0h-24v24h24v-24zm24 0h-24v24h24v-24zm24 0h-24v24h24v-24zm24 0h-24v24h24v-24zm24 0h-24v24h24v-24zm24 0h-24v24h24v-24zm24 0h-24v24h24v-24zm24 0h-24v24h24v-24zm24 0h-24v24h24v-24zm24 0h-24v24h24v-24zm24 0h-24v24h24v-24zm24 0h-24v24h24v-24zm24 0h-24v24h24v-24zm24 0h-24v24h24v-24zm24 0h-24v24h24v-24zm24 0h-24v24h24v-24zm24 0h-24v24h24v-24zm24 0h-24v24h24v-24zm24 0h-24v24h24v-24zm24 0h-24v24h24v-24zm24 0h-24v24h24v-24zm24 0h-24v24h24v-24zm24 0h-24v24h24v-24zm24 0h-24v24h24v-24zm24 0h-24v24h24v-24zm24 0h-24v24h24v-24zm24 0h-24v24h24v-24zm24 0h-24v24h24v-24zm24 0h-24v24h24v-24zm24 0h-24v24h24v-24zm24 0h-24v24h24v-24zm24 0h-24v24h24v-24zm24 0h-24v24h24v-24zm24 0h-24v24h24v-24zm24 0h-24v24h24v-24zm24 0h-24v24h24v-24zm24 0h-24v24h24v-24zm24 0h-24v24h24v-24zm24 0h-24v24h24v-24zm24 0h-24v24h24v-24zm24 0h-24v24h24v-24zm24 0h-24v24h24v-24zm24 0h-24v24h24v-24zm24 0h-24v24h24v-24zm24 0h-24v24h24v-24zm24 0h-24v24h24v-24zm24 0h-24v24h24v-24zm24 0h-24v24h24v-24zm24 0h-24v24h24v-24zm24 0h-24v24h24v-24zm24 0h-24v24h24v-24zm24 0h-24v24h24v-24zm24 0h-24v24h24v-24zm24 0h-24v24h24v-24zm24 0h-24v24h24v-24zm24 0h-24v24h24v-24zm24 0h-24v24h24v-24zm24 0h-24v24h24v-24zM4 270h-24v24H4v-24zm24 0H4v24h24v-24zm24 0H28v24h24v-24zm24 0H52v24h24v-24zm24 0H76v24h24v-24zm24 0h-24v24h24v-24zm24 0h-24v24h24v-24zm24 0h-24v24h24v-24zm24 0h-24v24h24v-24zm24 0h-24v24h24v-24zm24 0h-24v24h24v-24zm24 0h-24v24h24v-24zm24 0h-24v24h24v-24zm24 0h-24v24h24v-24zm24 0h-24v24h24v-24zm24 0h-24v24h24v-24zm24 0h-24v24h24v-24zm24 0h-24v24h24v-24zm24 0h-24v24h24v-24zm24 0h-24v24h24v-24zm24 0h-24v24h24v-24zm24 0h-24v24h24v-24zm24 0h-24v24h24v-24zm24 0h-24v24h24v-24zm24 0h-24v24h24v-24zm24 0h-24v24h24v-24zm24 0h-24v24h24v-24zm24 0h-24v24h24v-24zm24 0h-24v24h24v-24zm24 0h-24v24h24v-24zm24 0h-24v24h24v-24zm24 0h-24v24h24v-24zm24 0h-24v24h24v-24zm24 0h-24v24h24v-24zm24 0h-24v24h24v-24zm24 0h-24v24h24v-24zm24 0h-24v24h24v-24zm24 0h-24v24h24v-24zm24 0h-24v24h24v-24zm24 0h-24v24h24v-24zm24 0h-24v24h24v-24zm24 0h-24v24h24v-24zm24 0h-24v24h24v-24zm24 0h-24v24h24v-24zm24 0h-24v24h24v-24zm24 0h-24v24h24v-24zm24 0h-24v24h24v-24zm24 0h-24v24h24v-24zm24 0h-24v24h24v-24zm24 0h-24v24h24v-24zm24 0h-24v24h24v-24zm24 0h-24v24h24v-24zm24 0h-24v24h24v-24zm24 0h-24v24h24v-24zm24 0h-24v24h24v-24zm24 0h-24v24h24v-24zm24 0h-24v24h24v-24zm24 0h-24v24h24v-24zm24 0h-24v24h24v-24zm24 0h-24v24h24v-24zm24 0h-24v24h24v-24zm24 0h-24v24h24v-24zm24 0h-24v24h24v-24zm24 0h-24v24h24v-24zm24 0h-24v24h24v-24zm24 0h-24v24h24v-24zm24 0h-24v24h24v-24zm24 0h-24v24h24v-24zm24 0h-24v24h24v-24zm24 0h-24v24h24v-24zM4 294h-24v24H4v-24zm24 0H4v24h24v-24zm24 0H28v24h24v-24zm24 0H52v24h24v-24zm24 0H76v24h24v-24zm24 0h-24v24h24v-24zm24 0h-24v24h24v-24zm24 0h-24v24h24v-24zm24 0h-24v24h24v-24zm24 0h-24v24h24v-24zm24 0h-24v24h24v-24zm24 0h-24v24h24v-24zm24 0h-24v24h24v-24zm24 0h-24v24h24v-24zm24 0h-24v24h24v-24zm24 0h-24v24h24v-24zm24 0h-24v24h24v-24zm24 0h-24v24h24v-24zm24 0h-24v24h24v-24zm24 0h-24v24h24v-24zm24 0h-24v24h24v-24zm24 0h-24v24h24v-24zm24 0h-24v24h24v-24zm24 0h-24v24h24v-24zm24 0h-24v24h24v-24zm24 0h-24v24h24v-24zm24 0h-24v24h24v-24zm24 0h-24v24h24v-24zm24 0h-24v24h24v-24zm24 0h-24v24h24v-24zm24 0h-24v24h24v-24zm24 0h-24v24h24v-24zm24 0h-24v24h24v-24zm24 0h-24v24h24v-24zm24 0h-24v24h24v-24zm24 0h-24v24h24v-24zm24 0h-24v24h24v-24zm24 0h-24v24h24v-24zm24 0h-24v24h24v-24zm24 0h-24v24h24v-24zm24 0h-24v24h24v-24zm24 0h-24v24h24v-24zm24 0h-24v24h24v-24zm24 0h-24v24h24v-24zm24 0h-24v24h24v-24zm24 0h-24v24h24v-24zm24 0h-24v24h24v-24zm24 0h-24v24h24v-24zm24 0h-24v24h24v-24zm24 0h-24v24h24v-24zm24 0h-24v24h24v-24zm24 0h-24v24h24v-24zm24 0h-24v24h24v-24zm24 0h-24v24h24v-24zm24 0h-24v24h24v-24zm24 0h-24v24h24v-24zm24 0h-24v24h24v-24zm24 0h-24v24h24v-24zm24 0h-24v24h24v-24zm24 0h-24v24h24v-24zm24 0h-24v24h24v-24zm24 0h-24v24h24v-24zm24 0h-24v24h24v-24zm24 0h-24v24h24v-24zm24 0h-24v24h24v-24zm24 0h-24v24h24v-24zm24 0h-24v24h24v-24zm24 0h-24v24h24v-24zm24 0h-24v24h24v-24zm24 0h-24v24h24v-24zM4 318h-24v24H4v-24zm24 0H4v24h24v-24zm24 0H28v24h24v-24zm24 0H52v24h24v-24zm24 0H76v24h24v-24zm24 0h-24v24h24v-24zm24 0h-24v24h24v-24zm24 0h-24v24h24v-24zm24 0h-24v24h24v-24zm24 0h-24v24h24v-24zm24 0h-24v24h24v-24zm24 0h-24v24h24v-24zm24 0h-24v24h24v-24zm24 0h-24v24h24v-24zm24 0h-24v24h24v-24zm24 0h-24v24h24v-24zm24 0h-24v24h24v-24zm24 0h-24v24h24v-24zm24 0h-24v24h24v-24zm24 0h-24v24h24v-24zm24 0h-24v24h24v-24zm24 0h-24v24h24v-24zm24 0h-24v24h24v-24zm24 0h-24v24h24v-24zm24 0h-24v24h24v-24zm24 0h-24v24h24v-24zm24 0h-24v24h24v-24zm24 0h-24v24h24v-24zm24 0h-24v24h24v-24zm24 0h-24v24h24v-24zm24 0h-24v24h24v-24zm24 0h-24v24h24v-24zm24 0h-24v24h24v-24zm24 0h-24v24h24v-24zm24 0h-24v24h24v-24zm24 0h-24v24h24v-24zm24 0h-24v24h24v-24zm24 0h-24v24h24v-24zm24 0h-24v24h24v-24zm24 0h-24v24h24v-24zm24 0h-24v24h24v-24zm24 0h-24v24h24v-24zm24 0h-24v24h24v-24zm24 0h-24v24h24v-24zm24 0h-24v24h24v-24zm24 0h-24v24h24v-24zm24 0h-24v24h24v-24zm24 0h-24v24h24v-24zm24 0h-24v24h24v-24zm24 0h-24v24h24v-24zm24 0h-24v24h24v-24zm24 0h-24v24h24v-24zm24 0h-24v24h24v-24zm24 0h-24v24h24v-24zm24 0h-24v24h24v-24zm24 0h-24v24h24v-24zm24 0h-24v24h24v-24zm24 0h-24v24h24v-24zm24 0h-24v24h24v-24zm24 0h-24v24h24v-24zm24 0h-24v24h24v-24zm24 0h-24v24h24v-24zm24 0h-24v24h24v-24zm24 0h-24v24h24v-24zm24 0h-24v24h24v-24zm24 0h-24v24h24v-24zm24 0h-24v24h24v-24zm24 0h-24v24h24v-24zm24 0h-24v24h24v-24zm24 0h-24v24h24v-24zM4 342h-24v24H4v-24zm24 0H4v24h24v-24zm24 0H28v24h24v-24zm24 0H52v24h24v-24zm24 0H76v24h24v-24zm24 0h-24v24h24v-24zm24 0h-24v24h24v-24zm24 0h-24v24h24v-24zm24 0h-24v24h24v-24zm24 0h-24v24h24v-24zm24 0h-24v24h24v-24zm24 0h-24v24h24v-24zm24 0h-24v24h24v-24zm24 0h-24v24h24v-24zm24 0h-24v24h24v-24zm24 0h-24v24h24v-24zm24 0h-24v24h24v-24zm24 0h-24v24h24v-24zm24 0h-24v24h24v-24zm24 0h-24v24h24v-24zm24 0h-24v24h24v-24zm24 0h-24v24h24v-24zm24 0h-24v24h24v-24zm24 0h-24v24h24v-24zm24 0h-24v24h24v-24zm24 0h-24v24h24v-24zm24 0h-24v24h24v-24zm24 0h-24v24h24v-24zm24 0h-24v24h24v-24zm24 0h-24v24h24v-24zm24 0h-24v24h24v-24zm24 0h-24v24h24v-24zm24 0h-24v24h24v-24zm24 0h-24v24h24v-24zm24 0h-24v24h24v-24zm24 0h-24v24h24v-24zm24 0h-24v24h24v-24zm24 0h-24v24h24v-24zm24 0h-24v24h24v-24zm24 0h-24v24h24v-24zm24 0h-24v24h24v-24zm24 0h-24v24h24v-24zm24 0h-24v24h24v-24zm24 0h-24v24h24v-24zm24 0h-24v24h24v-24zm24 0h-24v24h24v-24zm24 0h-24v24h24v-24zm24 0h-24v24h24v-24zm24 0h-24v24h24v-24zm24 0h-24v24h24v-24zm24 0h-24v24h24v-24zm24 0h-24v24h24v-24zm24 0h-24v24h24v-24zm24 0h-24v24h24v-24zm24 0h-24v24h24v-24zm24 0h-24v24h24v-24zm24 0h-24v24h24v-24zm24 0h-24v24h24v-24zm24 0h-24v24h24v-24zm24 0h-24v24h24v-24zm24 0h-24v24h24v-24zm24 0h-24v24h24v-24zm24 0h-24v24h24v-24zm24 0h-24v24h24v-24zm24 0h-24v24h24v-24zm24 0h-24v24h24v-24zm24 0h-24v24h24v-24zm24 0h-24v24h24v-24zm24 0h-24v24h24v-24zm24 0h-24v24h24v-24zM4 366h-24v24H4v-24zm24 0H4v24h24v-24zm24 0H28v24h24v-24zm24 0H52v24h24v-24zm24 0H76v24h24v-24zm24 0h-24v24h24v-24zm24 0h-24v24h24v-24zm24 0h-24v24h24v-24zm24 0h-24v24h24v-24zm24 0h-24v24h24v-24zm24 0h-24v24h24v-24zm24 0h-24v24h24v-24zm24 0h-24v24h24v-24zm24 0h-24v24h24v-24zm24 0h-24v24h24v-24zm24 0h-24v24h24v-24zm24 0h-24v24h24v-24zm24 0h-24v24h24v-24zm24 0h-24v24h24v-24zm24 0h-24v24h24v-24zm24 0h-24v24h24v-24zm24 0h-24v24h24v-24zm24 0h-24v24h24v-24zm24 0h-24v24h24v-24zm24 0h-24v24h24v-24zm24 0h-24v24h24v-24zm24 0h-24v24h24v-24zm24 0h-24v24h24v-24zm24 0h-24v24h24v-24zm24 0h-24v24h24v-24zm24 0h-24v24h24v-24zm24 0h-24v24h24v-24zm24 0h-24v24h24v-24zm24 0h-24v24h24v-24zm24 0h-24v24h24v-24zm24 0h-24v24h24v-24zm24 0h-24v24h24v-24zm24 0h-24v24h24v-24zm24 0h-24v24h24v-24zm24 0h-24v24h24v-24zm24 0h-24v24h24v-24zm24 0h-24v24h24v-24zm24 0h-24v24h24v-24zm24 0h-24v24h24v-24zm24 0h-24v24h24v-24zm24 0h-24v24h24v-24zm24 0h-24v24h24v-24zm24 0h-24v24h24v-24zm24 0h-24v24h24v-24zm24 0h-24v24h24v-24zm24 0h-24v24h24v-24zm24 0h-24v24h24v-24zm24 0h-24v24h24v-24zm24 0h-24v24h24v-24zm24 0h-24v24h24v-24zm24 0h-24v24h24v-24zm24 0h-24v24h24v-24zm24 0h-24v24h24v-24zm24 0h-24v24h24v-24zm24 0h-24v24h24v-24zm24 0h-24v24h24v-24zm24 0h-24v24h24v-24zm24 0h-24v24h24v-24zm24 0h-24v24h24v-24zm24 0h-24v24h24v-24zm24 0h-24v24h24v-24zm24 0h-24v24h24v-24zm24 0h-24v24h24v-24zm24 0h-24v24h24v-24zm24 0h-24v24h24v-24zM4 390h-24v24H4v-24zm24 0H4v24h24v-24zm24 0H28v24h24v-24zm24 0H52v24h24v-24zm24 0H76v24h24v-24zm24 0h-24v24h24v-24zm24 0h-24v24h24v-24zm24 0h-24v24h24v-24zm24 0h-24v24h24v-24zm24 0h-24v24h24v-24zm24 0h-24v24h24v-24zm24 0h-24v24h24v-24zm24 0h-24v24h24v-24zm24 0h-24v24h24v-24zm24 0h-24v24h24v-24zm24 0h-24v24h24v-24zm24 0h-24v24h24v-24zm24 0h-24v24h24v-24zm24 0h-24v24h24v-24zm24 0h-24v24h24v-24zm24 0h-24v24h24v-24zm24 0h-24v24h24v-24zm24 0h-24v24h24v-24zm24 0h-24v24h24v-24zm24 0h-24v24h24v-24zm24 0h-24v24h24v-24zm24 0h-24v24h24v-24zm24 0h-24v24h24v-24zm24 0h-24v24h24v-24zm24 0h-24v24h24v-24zm24 0h-24v24h24v-24zm24 0h-24v24h24v-24zm24 0h-24v24h24v-24zm24 0h-24v24h24v-24zm24 0h-24v24h24v-24zm24 0h-24v24h24v-24zm24 0h-24v24h24v-24zm24 0h-24v24h24v-24zm24 0h-24v24h24v-24zm24 0h-24v24h24v-24zm24 0h-24v24h24v-24zm24 0h-24v24h24v-24zm24 0h-24v24h24v-24zm24 0h-24v24h24v-24zm24 0h-24v24h24v-24zm24 0h-24v24h24v-24zm24 0h-24v24h24v-24zm24 0h-24v24h24v-24zm24 0h-24v24h24v-24zm24 0h-24v24h24v-24zm24 0h-24v24h24v-24zm24 0h-24v24h24v-24zm24 0h-24v24h24v-24zm24 0h-24v24h24v-24zm24 0h-24v24h24v-24zm24 0h-24v24h24v-24zm24 0h-24v24h24v-24zm24 0h-24v24h24v-24zm24 0h-24v24h24v-24zm24 0h-24v24h24v-24zm24 0h-24v24h24v-24zm24 0h-24v24h24v-24zm24 0h-24v24h24v-24zm24 0h-24v24h24v-24zm24 0h-24v24h24v-24zm24 0h-24v24h24v-24zm24 0h-24v24h24v-24zm24 0h-24v24h24v-24zm24 0h-24v24h24v-24zm24 0h-24v24h24v-24zM4 414h-24v24H4v-24zm24 0H4v24h24v-24zm24 0H28v24h24v-24zm24 0H52v24h24v-24zm24 0H76v24h24v-24zm24 0h-24v24h24v-24zm24 0h-24v24h24v-24zm24 0h-24v24h24v-24zm24 0h-24v24h24v-24zm24 0h-24v24h24v-24zm24 0h-24v24h24v-24zm24 0h-24v24h24v-24zm24 0h-24v24h24v-24zm24 0h-24v24h24v-24zm24 0h-24v24h24v-24zm24 0h-24v24h24v-24zm24 0h-24v24h24v-24zm24 0h-24v24h24v-24zm24 0h-24v24h24v-24zm24 0h-24v24h24v-24zm24 0h-24v24h24v-24zm24 0h-24v24h24v-24zm24 0h-24v24h24v-24zm24 0h-24v24h24v-24zm24 0h-24v24h24v-24zm24 0h-24v24h24v-24zm24 0h-24v24h24v-24zm24 0h-24v24h24v-24zm24 0h-24v24h24v-24zm24 0h-24v24h24v-24zm24 0h-24v24h24v-24zm24 0h-24v24h24v-24zm24 0h-24v24h24v-24zm24 0h-24v24h24v-24zm24 0h-24v24h24v-24zm24 0h-24v24h24v-24zm24 0h-24v24h24v-24zm24 0h-24v24h24v-24zm24 0h-24v24h24v-24zm24 0h-24v24h24v-24zm24 0h-24v24h24v-24zm24 0h-24v24h24v-24zm24 0h-24v24h24v-24zm24 0h-24v24h24v-24zm24 0h-24v24h24v-24zm24 0h-24v24h24v-24zm24 0h-24v24h24v-24zm24 0h-24v24h24v-24zm24 0h-24v24h24v-24zm24 0h-24v24h24v-24zm24 0h-24v24h24v-24zm24 0h-24v24h24v-24zm24 0h-24v24h24v-24zm24 0h-24v24h24v-24zm24 0h-24v24h24v-24zm24 0h-24v24h24v-24zm24 0h-24v24h24v-24zm24 0h-24v24h24v-24zm24 0h-24v24h24v-24zm24 0h-24v24h24v-24zm24 0h-24v24h24v-24zm24 0h-24v24h24v-24zm24 0h-24v24h24v-24zm24 0h-24v24h24v-24zm24 0h-24v24h24v-24zm24 0h-24v24h24v-24zm24 0h-24v24h24v-24zm24 0h-24v24h24v-24zm24 0h-24v24h24v-24zm24 0h-24v24h24v-24z"/><path fill="#fff" fill-opacity=".2" d="M5.273 414a1 1 0 1 1-2 0 1 1 0 0 1 2 0z"/><path fill="#fff" fill-opacity=".8" d="M29.273 414a1 1 0 1 1-2 0 1 1 0 0 1 2 0z"/><path fill="#fff" fill-opacity=".2" d="M53.273 414a1 1 0 1 1-2 0 1 1 0 0 1 2 0zm24 0a1 1 0 1 1-2 0 1 1 0 0 1 2 0zm23-1a1 1 0 1 1 0 2 1 1 0 0 1 0-2zm24 0a1 1 0 1 1 0 2 1 1 0 0 1 0-2z"/><path fill="#fff" fill-opacity=".1" d="M148.273 413a1 1 0 1 1 0 2 1 1 0 0 1 0-2zm25 1a1 1 0 1 1-2 0 1 1 0 0 1 2 0zm24 0a1 1 0 1 1-2 0 1 1 0 0 1 2 0zm24 0a1 1 0 1 1-2 0 1 1 0 0 1 2 0zm24 0a1 1 0 1 1-2 0 1 1 0 0 1 2 0zm24 0a1 1 0 1 1-2 0 1 1 0 0 1 2 0zm24 0a1 1 0 1 1-2 0 1 1 0 0 1 2 0zm23-1a1 1 0 1 1 0 2 1 1 0 0 1 0-2zm24 0a1 1 0 1 1 0 2 1 1 0 0 1 0-2zm24 0a1 1 0 1 1 0 2 1 1 0 0 1 0-2zm25 1a1 1 0 1 1-2 0 1 1 0 0 1 2 0zm24 0a1 1 0 1 1-2 0 1 1 0 0 1 2 0zm24 0a1 1 0 1 1-2 0 1 1 0 0 1 2 0zm24 0a1 1 0 1 1-2 0 1 1 0 0 1 2 0zm24 0a1 1 0 1 1-2 0 1 1 0 0 1 2 0zm24 0a1 1 0 1 1-2 0 1 1 0 0 1 2 0zm23-1a1 1 0 1 1 0 2 1 1 0 0 1 0-2zm24 0a1 1 0 1 1 0 2 1 1 0 0 1 0-2zm24 0a1 1 0 1 1 0 2 1 1 0 0 1 0-2zm25 1a1 1 0 1 1-2 0 1 1 0 0 1 2 0z"/><path fill="#fff" fill-opacity=".8" d="M629.273 414a1 1 0 1 1-2 0 1 1 0 0 1 2 0z"/><path fill="#fff" fill-opacity=".2" d="M653.273 414a1 1 0 1 1-2 0 1 1 0 0 1 2 0zm24 0a1 1 0 1 1-2 0 1 1 0 0 1 2 0zm24 0a1 1 0 1 1-2 0 1 1 0 0 1 2 0zm24 0a1 1 0 1 1-2 0 1 1 0 0 1 2 0zm23-1a1 1 0 1 1 0 2 1 1 0 0 1 0-2zm24 0a1 1 0 1 1 0 2 1 1 0 0 1 0-2z"/><path fill="#fff" fill-opacity=".1" d="M796.273 413a1 1 0 1 1 0 2 1 1 0 0 1 0-2zm25 1a1 1 0 1 1-2 0 1 1 0 0 1 2 0z"/><path fill="#fff" fill-opacity=".2" d="M845.273 414a1 1 0 1 1-2 0 1 1 0 0 1 2 0z"/><path fill="#fff" fill-opacity=".3" d="M869.273 414a1 1 0 1 1-2 0 1 1 0 0 1 2 0zm24 0a1 1 0 1 1-2 0 1 1 0 0 1 2 0zm24 0a1 1 0 1 1-2 0 1 1 0 0 1 2 0zm24 0a1 1 0 1 1-2 0 1 1 0 0 1 2 0zm23-1a1 1 0 1 1 0 2 1 1 0 0 1 0-2z"/><path fill="#fff" fill-opacity=".2" d="M988.273 413a1 1 0 1 1 0 2 1 1 0 0 1 0-2z"/><path fill="#fff" fill-opacity=".1" d="M1012.27 413c.55 0 1 .448 1 1s-.45 1-1 1-1-.448-1-1 .45-1 1-1zm25 1c0 .552-.45 1-1 1s-1-.448-1-1 .45-1 1-1 1 .448 1 1z"/><path fill="#fff" fill-opacity=".2" d="M1061.27 414c0 .552-.45 1-1 1s-1-.448-1-1 .45-1 1-1 1 .448 1 1z"/><path fill="#fff" fill-opacity=".3" d="M1085.27 414c0 .552-.45 1-1 1s-1-.448-1-1 .45-1 1-1 1 .448 1 1z"/><path fill="#fff" fill-opacity=".4" d="M1109.27 414c0 .552-.45 1-1 1s-1-.448-1-1 .45-1 1-1 1 .448 1 1z"/><path fill="#fff" fill-opacity=".8" d="M1133.27 414c0 .552-.45 1-1 1s-1-.448-1-1 .45-1 1-1 1 .448 1 1z"/><path fill="#fff" fill-opacity=".4" d="M1157.27 414c0 .552-.45 1-1 1s-1-.448-1-1 .45-1 1-1 1 .448 1 1z"/><path fill="#fff" fill-opacity=".3" d="M1180.27 413c.55 0 1 .448 1 1s-.45 1-1 1-1-.448-1-1 .45-1 1-1z"/><path fill="#fff" fill-opacity=".2" d="M1204.27 413c.55 0 1 .448 1 1s-.45 1-1 1-1-.448-1-1 .45-1 1-1z"/><path fill="#fff" fill-opacity=".1" d="M1228.27 413c.55 0 1 .448 1 1s-.45 1-1 1-1-.448-1-1 .45-1 1-1zm25 1c0 .552-.45 1-1 1s-1-.448-1-1 .45-1 1-1 1 .448 1 1z"/><path fill="#fff" fill-opacity=".2" d="M1277.27 414c0 .552-.45 1-1 1s-1-.448-1-1 .45-1 1-1 1 .448 1 1z"/><path fill="#fff" fill-opacity=".3" d="M1301.27 414c0 .552-.45 1-1 1s-1-.448-1-1 .45-1 1-1 1 .448 1 1z"/><path fill="#fff" fill-opacity=".4" d="M1325.27 414c0 .552-.45 1-1 1s-1-.448-1-1 .45-1 1-1 1 .448 1 1zm24 0c0 .552-.45 1-1 1s-1-.448-1-1 .45-1 1-1 1 .448 1 1zm24 0c0 .552-.45 1-1 1s-1-.448-1-1 .45-1 1-1 1 .448 1 1z"/><path fill="#fff" fill-opacity=".2" d="M1397.27 414c0 .552-.45 1-1 1s-1-.448-1-1 .45-1 1-1 1 .448 1 1z"/><path fill="#fff" fill-opacity=".4" d="M1421.27 414c0 .552-.45 1-1 1s-1-.448-1-1 .45-1 1-1 1 .448 1 1zm24 0c0 .552-.45 1-1 1s-1-.448-1-1 .45-1 1-1 1 .448 1 1z"/><path fill="#fff" fill-opacity=".2" d="M1469.27 414c0 .552-.45 1-1 1s-1-.448-1-1 .45-1 1-1 1 .448 1 1z"/><path fill="#fff" fill-opacity=".4" d="M1493.27 414c0 .552-.45 1-1 1s-1-.448-1-1 .45-1 1-1 1 .448 1 1zm24 0c0 .552-.45 1-1 1s-1-.448-1-1 .45-1 1-1 1 .448 1 1z"/><path fill="#fff" fill-opacity=".3" d="M1540.27 413c.55 0 1 .448 1 1s-.45 1-1 1-1-.448-1-1 .45-1 1-1z"/><path fill="#fff" fill-opacity=".2" d="M1564.27 413c.55 0 1 .448 1 1s-.45 1-1 1-1-.448-1-1 .45-1 1-1z"/><path fill="#fff" fill-opacity=".1" d="M1588.27 413c.55 0 1 .448 1 1s-.45 1-1 1-1-.448-1-1 .45-1 1-1zm25 1c0 .552-.45 1-1 1s-1-.448-1-1 .45-1 1-1 1 .448 1 1z"/><path fill="#fff" fill-opacity=".2" d="M1637.27 414c0 .552-.45 1-1 1s-1-.448-1-1 .45-1 1-1 1 .448 1 1z"/><path fill="#fff" fill-opacity=".4" d="M5.273 390a1 1 0 1 1-2 0 1 1 0 0 1 2 0z"/><path fill="#fff" fill-opacity=".3" d="M28.273 389a1 1 0 1 1 0 2 1 1 0 0 1 0-2z"/><path fill="#fff" fill-opacity=".2" d="M52.273 389a1 1 0 1 1 0 2 1 1 0 0 1 0-2z"/><path fill="#fff" fill-opacity=".1" d="M76.273 389a1 1 0 1 1 0 2 1 1 0 0 1 0-2zm25 1a1 1 0 1 1-2 0 1 1 0 0 1 2 0z"/><path fill="#fff" fill-opacity=".2" d="M125.273 390a1 1 0 1 1-2 0 1 1 0 0 1 2 0z"/><path fill="#fff" fill-opacity=".3" d="M149.273 390a1 1 0 1 1-2 0 1 1 0 0 1 2 0zm24 0a1 1 0 1 1-2 0 1 1 0 0 1 2 0zm24 0a1 1 0 1 1-2 0 1 1 0 0 1 2 0zm24 0a1 1 0 1 1-2 0 1 1 0 0 1 2 0zm23-1a1 1 0 1 1 0 2 1 1 0 0 1 0-2z"/><path fill="#fff" fill-opacity=".2" d="M268.273 389a1 1 0 1 1 0 2 1 1 0 0 1 0-2z"/><path fill="#fff" fill-opacity=".8" d="M292.273 389a1 1 0 1 1 0 2 1 1 0 0 1 0-2z"/><path fill="#fff" fill-opacity=".1" d="M317.273 390a1 1 0 1 1-2 0 1 1 0 0 1 2 0z"/><path fill="#fff" fill-opacity=".2" d="M341.273 390a1 1 0 1 1-2 0 1 1 0 0 1 2 0zm24 0a1 1 0 1 1-2 0 1 1 0 0 1 2 0z"/><path fill="#fff" fill-opacity=".8" d="M389.273 390a1 1 0 1 1-2 0 1 1 0 0 1 2 0z"/><path fill="#fff" fill-opacity=".2" d="M413.273 390a1 1 0 1 1-2 0 1 1 0 0 1 2 0zm24 0a1 1 0 1 1-2 0 1 1 0 0 1 2 0zm23-1a1 1 0 1 1 0 2 1 1 0 0 1 0-2zm24 0a1 1 0 1 1 0 2 1 1 0 0 1 0-2z"/><path fill="#fff" fill-opacity=".1" d="M508.273 389a1 1 0 1 1 0 2 1 1 0 0 1 0-2zm25 1a1 1 0 1 1-2 0 1 1 0 0 1 2 0zm24 0a1 1 0 1 1-2 0 1 1 0 0 1 2 0zm24 0a1 1 0 1 1-2 0 1 1 0 0 1 2 0zm24 0a1 1 0 1 1-2 0 1 1 0 0 1 2 0zm24 0a1 1 0 1 1-2 0 1 1 0 0 1 2 0zm24 0a1 1 0 1 1-2 0 1 1 0 0 1 2 0zm23-1a1 1 0 1 1 0 2 1 1 0 0 1 0-2zm25 1a1 1 0 1 1-2 0 1 1 0 0 1 2 0zm24 0a1 1 0 1 1-2 0 1 1 0 0 1 2 0zm24 0a1 1 0 1 1-2 0 1 1 0 0 1 2 0zm24 0a1 1 0 1 1-2 0 1 1 0 0 1 2 0zm24 0a1 1 0 1 1-2 0 1 1 0 0 1 2 0zm24 0a1 1 0 1 1-2 0 1 1 0 0 1 2 0zm23-1a1 1 0 1 1 0 2 1 1 0 0 1 0-2zm24 0a1 1 0 1 1 0 2 1 1 0 0 1 0-2zm24 0a1 1 0 1 1 0 2 1 1 0 0 1 0-2zm25 1a1 1 0 1 1-2 0 1 1 0 0 1 2 0z"/><path fill="#fff" fill-opacity=".8" d="M941.273 390a1 1 0 1 1-2 0 1 1 0 0 1 2 0z"/><path fill="#fff" fill-opacity=".2" d="M965.273 390a1 1 0 1 1-2 0 1 1 0 0 1 2 0zm24 0a1 1 0 1 1-2 0 1 1 0 0 1 2 0zm23.997 0c0 .552-.45 1-1 1s-1-.448-1-1 .45-1 1-1 1 .448 1 1zm24 0c0 .552-.45 1-1 1s-1-.448-1-1 .45-1 1-1 1 .448 1 1zm23-1c.55 0 1 .448 1 1s-.45 1-1 1-1-.448-1-1 .45-1 1-1zm24 0c.55 0 1 .448 1 1s-.45 1-1 1-1-.448-1-1 .45-1 1-1z"/><path fill="#fff" fill-opacity=".1" d="M1108.27 389c.55 0 1 .448 1 1s-.45 1-1 1-1-.448-1-1 .45-1 1-1zm25 1c0 .552-.45 1-1 1s-1-.448-1-1 .45-1 1-1 1 .448 1 1z"/><path fill="#fff" fill-opacity=".2" d="M1157.27 390c0 .552-.45 1-1 1s-1-.448-1-1 .45-1 1-1 1 .448 1 1z"/><path fill="#fff" fill-opacity=".3" d="M1181.27 390c0 .552-.45 1-1 1s-1-.448-1-1 .45-1 1-1 1 .448 1 1zm24 0c0 .552-.45 1-1 1s-1-.448-1-1 .45-1 1-1 1 .448 1 1zm24 0c0 .552-.45 1-1 1s-1-.448-1-1 .45-1 1-1 1 .448 1 1zm24 0c0 .552-.45 1-1 1s-1-.448-1-1 .45-1 1-1 1 .448 1 1zm23-1c.55 0 1 .448 1 1s-.45 1-1 1-1-.448-1-1 .45-1 1-1z"/><path fill="#fff" fill-opacity=".2" d="M1300.27 389c.55 0 1 .448 1 1s-.45 1-1 1-1-.448-1-1 .45-1 1-1z"/><path fill="#fff" fill-opacity=".1" d="M1324.27 389c.55 0 1 .448 1 1s-.45 1-1 1-1-.448-1-1 .45-1 1-1zm25 1c0 .552-.45 1-1 1s-1-.448-1-1 .45-1 1-1 1 .448 1 1z"/><path fill="#fff" fill-opacity=".2" d="M1373.27 390c0 .552-.45 1-1 1s-1-.448-1-1 .45-1 1-1 1 .448 1 1z"/><path fill="#fff" fill-opacity=".3" d="M1397.27 390c0 .552-.45 1-1 1s-1-.448-1-1 .45-1 1-1 1 .448 1 1z"/><path fill="#fff" fill-opacity=".4" d="M1421.27 390c0 .552-.45 1-1 1s-1-.448-1-1 .45-1 1-1 1 .448 1 1z"/><path fill="#fff" fill-opacity=".8" d="M1445.27 390c0 .552-.45 1-1 1s-1-.448-1-1 .45-1 1-1 1 .448 1 1z"/><path fill="#fff" fill-opacity=".4" d="M1469.27 390c0 .552-.45 1-1 1s-1-.448-1-1 .45-1 1-1 1 .448 1 1z"/><path fill="#fff" fill-opacity=".3" d="M1492.27 389c.55 0 1 .448 1 1s-.45 1-1 1-1-.448-1-1 .45-1 1-1z"/><path fill="#fff" fill-opacity=".2" d="M1516.27 389c.55 0 1 .448 1 1s-.45 1-1 1-1-.448-1-1 .45-1 1-1z"/><path fill="#fff" fill-opacity=".1" d="M1540.27 389c.55 0 1 .448 1 1s-.45 1-1 1-1-.448-1-1 .45-1 1-1zm25 1c0 .552-.45 1-1 1s-1-.448-1-1 .45-1 1-1 1 .448 1 1z"/><path fill="#fff" fill-opacity=".2" d="M1589.27 390c0 .552-.45 1-1 1s-1-.448-1-1 .45-1 1-1 1 .448 1 1z"/><path fill="#fff" fill-opacity=".3" d="M1613.27 390c0 .552-.45 1-1 1s-1-.448-1-1 .45-1 1-1 1 .448 1 1z"/><path fill="#fff" fill-opacity=".4" d="M1637.27 390c0 .552-.45 1-1 1s-1-.448-1-1 .45-1 1-1 1 .448 1 1z"/><path fill="#fff" fill-opacity=".2" d="M4.273 365a1 1 0 1 1 0 2 1 1 0 0 1 0-2z"/><path fill="#fff" fill-opacity=".1" d="M28.273 365a1 1 0 1 1 0 2 1 1 0 0 1 0-2zm25 1a1 1 0 1 1-2 0 1 1 0 0 1 2 0z"/><path fill="#fff" fill-opacity=".2" d="M77.273 366a1 1 0 1 1-2 0 1 1 0 0 1 2 0z"/><path fill="#fff" fill-opacity=".3" d="M101.273 366a1 1 0 1 1-2 0 1 1 0 0 1 2 0z"/><path fill="#fff" fill-opacity=".4" d="M125.273 366a1 1 0 1 1-2 0 1 1 0 0 1 2 0zm24 0a1 1 0 1 1-2 0 1 1 0 0 1 2 0zm24 0a1 1 0 1 1-2 0 1 1 0 0 1 2 0z"/><path fill="#fff" fill-opacity=".3" d="M196.273 365a1 1 0 1 1 0 2 1 1 0 0 1 0-2z"/><path fill="#fff" fill-opacity=".2" d="M220.273 365a1 1 0 1 1 0 2 1 1 0 0 1 0-2z"/><path fill="#fff" fill-opacity=".1" d="M244.273 365a1 1 0 1 1 0 2 1 1 0 0 1 0-2zm25 1a1 1 0 1 1-2 0 1 1 0 0 1 2 0z"/><path fill="#fff" fill-opacity=".2" d="M293.273 366a1 1 0 1 1-2 0 1 1 0 0 1 2 0z"/><path fill="#fff" fill-opacity=".3" d="M317.273 366a1 1 0 1 1-2 0 1 1 0 0 1 2 0zm24 0a1 1 0 1 1-2 0 1 1 0 0 1 2 0zm24 0a1 1 0 1 1-2 0 1 1 0 0 1 2 0zm24 0a1 1 0 1 1-2 0 1 1 0 0 1 2 0zm23-1a1 1 0 1 1 0 2 1 1 0 0 1 0-2z"/><path fill="#fff" fill-opacity=".2" d="M436.273 365a1 1 0 1 1 0 2 1 1 0 0 1 0-2z"/><path fill="#fff" fill-opacity=".8" d="M460.273 365a1 1 0 1 1 0 2 1 1 0 0 1 0-2z"/><path fill="#fff" fill-opacity=".1" d="M485.273 366a1 1 0 1 1-2 0 1 1 0 0 1 2 0z"/><path fill="#fff" fill-opacity=".2" d="M509.273 366a1 1 0 1 1-2 0 1 1 0 0 1 2 0zm24 0a1 1 0 1 1-2 0 1 1 0 0 1 2 0z"/><path fill="#fff" fill-opacity=".8" d="M557.273 366a1 1 0 1 1-2 0 1 1 0 0 1 2 0z"/><path fill="#fff" fill-opacity=".2" d="M581.273 366a1 1 0 1 1-2 0 1 1 0 0 1 2 0zm24 0a1 1 0 1 1-2 0 1 1 0 0 1 2 0zm23-1a1 1 0 1 1 0 2 1 1 0 0 1 0-2zm24 0a1 1 0 1 1 0 2 1 1 0 0 1 0-2z"/><path fill="#fff" fill-opacity=".1" d="M676.273 365a1 1 0 1 1 0 2 1 1 0 0 1 0-2zm25 1a1 1 0 1 1-2 0 1 1 0 0 1 2 0zm24 0a1 1 0 1 1-2 0 1 1 0 0 1 2 0zm24 0a1 1 0 1 1-2 0 1 1 0 0 1 2 0zm24 0a1 1 0 1 1-2 0 1 1 0 0 1 2 0zm24 0a1 1 0 1 1-2 0 1 1 0 0 1 2 0zm24 0a1 1 0 1 1-2 0 1 1 0 0 1 2 0zm23-1a1 1 0 1 1 0 2 1 1 0 0 1 0-2zm24 0a1 1 0 1 1 0 2 1 1 0 0 1 0-2zm24 0a1 1 0 1 1 0 2 1 1 0 0 1 0-2zm25 1a1 1 0 1 1-2 0 1 1 0 0 1 2 0zm24 0a1 1 0 1 1-2 0 1 1 0 0 1 2 0zm24 0a1 1 0 1 1-2 0 1 1 0 0 1 2 0zm24 0a1 1 0 1 1-2 0 1 1 0 0 1 2 0zm23.997 0c0 .552-.45 1-1 1s-1-.448-1-1 .45-1 1-1 1 .448 1 1zm24 0c0 .552-.45 1-1 1s-1-.448-1-1 .45-1 1-1 1 .448 1 1zm23-1c.55 0 1 .448 1 1s-.45 1-1 1-1-.448-1-1 .45-1 1-1zm24 0c.55 0 1 .448 1 1s-.45 1-1 1-1-.448-1-1 .45-1 1-1zm24 0c.55 0 1 .448 1 1s-.45 1-1 1-1-.448-1-1 .45-1 1-1zm25 1c0 .552-.45 1-1 1s-1-.448-1-1 .45-1 1-1 1 .448 1 1z"/><path fill="#fff" fill-opacity=".8" d="M1157.27 366c0 .552-.45 1-1 1s-1-.448-1-1 .45-1 1-1 1 .448 1 1z"/><path fill="#fff" fill-opacity=".2" d="M1181.27 366c0 .552-.45 1-1 1s-1-.448-1-1 .45-1 1-1 1 .448 1 1zm24 0c0 .552-.45 1-1 1s-1-.448-1-1 .45-1 1-1 1 .448 1 1zm24 0c0 .552-.45 1-1 1s-1-.448-1-1 .45-1 1-1 1 .448 1 1zm24 0c0 .552-.45 1-1 1s-1-.448-1-1 .45-1 1-1 1 .448 1 1zm23-1c.55 0 1 .448 1 1s-.45 1-1 1-1-.448-1-1 .45-1 1-1zm24 0c.55 0 1 .448 1 1s-.45 1-1 1-1-.448-1-1 .45-1 1-1z"/><path fill="#fff" fill-opacity=".1" d="M1324.27 365c.55 0 1 .448 1 1s-.45 1-1 1-1-.448-1-1 .45-1 1-1zm25 1c0 .552-.45 1-1 1s-1-.448-1-1 .45-1 1-1 1 .448 1 1z"/><path fill="#fff" fill-opacity=".2" d="M1373.27 366c0 .552-.45 1-1 1s-1-.448-1-1 .45-1 1-1 1 .448 1 1z"/><path fill="#fff" fill-opacity=".3" d="M1397.27 366c0 .552-.45 1-1 1s-1-.448-1-1 .45-1 1-1 1 .448 1 1zm24 0c0 .552-.45 1-1 1s-1-.448-1-1 .45-1 1-1 1 .448 1 1zm24 0c0 .552-.45 1-1 1s-1-.448-1-1 .45-1 1-1 1 .448 1 1zm24 0c0 .552-.45 1-1 1s-1-.448-1-1 .45-1 1-1 1 .448 1 1zm23-1c.55 0 1 .448 1 1s-.45 1-1 1-1-.448-1-1 .45-1 1-1z"/><path fill="#fff" fill-opacity=".2" d="M1516.27 365c.55 0 1 .448 1 1s-.45 1-1 1-1-.448-1-1 .45-1 1-1z"/><path fill="#fff" fill-opacity=".1" d="M1540.27 365c.55 0 1 .448 1 1s-.45 1-1 1-1-.448-1-1 .45-1 1-1zm25 1c0 .552-.45 1-1 1s-1-.448-1-1 .45-1 1-1 1 .448 1 1z"/><path fill="#fff" fill-opacity=".2" d="M1589.27 366c0 .552-.45 1-1 1s-1-.448-1-1 .45-1 1-1 1 .448 1 1z"/><path fill="#fff" fill-opacity=".3" d="M1613.27 366c0 .552-.45 1-1 1s-1-.448-1-1 .45-1 1-1 1 .448 1 1z"/><path fill="#fff" fill-opacity=".4" d="M1637.27 366c0 .552-.45 1-1 1s-1-.448-1-1 .45-1 1-1 1 .448 1 1z"/><path fill="#fff" fill-opacity=".2" d="M4.273 341a1 1 0 1 1 0 2 1 1 0 0 1 0-2z"/><path fill="#fff" fill-opacity=".1" d="M28.273 341a1 1 0 1 1 0 2 1 1 0 0 1 0-2zm25 1a1 1 0 1 1-2 0 1 1 0 0 1 2 0z"/><path fill="#fff" fill-opacity=".2" d="M77.273 342a1 1 0 1 1-2 0 1 1 0 0 1 2 0z"/><path fill="#fff" fill-opacity=".3" d="M101.273 342a1 1 0 1 1-2 0 1 1 0 0 1 2 0z"/><path fill="#fff" fill-opacity=".4" d="M125.273 342a1 1 0 1 1-2 0 1 1 0 0 1 2 0zm24 0a1 1 0 1 1-2 0 1 1 0 0 1 2 0zm24 0a1 1 0 1 1-2 0 1 1 0 0 1 2 0z"/><path fill="#fff" fill-opacity=".3" d="M196.273 341a1 1 0 1 1 0 2 1 1 0 0 1 0-2z"/><path fill="#fff" fill-opacity=".2" d="M220.273 341a1 1 0 1 1 0 2 1 1 0 0 1 0-2z"/><path fill="#fff" fill-opacity=".1" d="M244.273 341a1 1 0 1 1 0 2 1 1 0 0 1 0-2zm25 1a1 1 0 1 1-2 0 1 1 0 0 1 2 0z"/><path fill="#fff" fill-opacity=".2" d="M293.273 342a1 1 0 1 1-2 0 1 1 0 0 1 2 0z"/><path fill="#fff" fill-opacity=".3" d="M317.273 342a1 1 0 1 1-2 0 1 1 0 0 1 2 0z"/><path fill="#fff" fill-opacity=".4" d="M341.273 342a1 1 0 1 1-2 0 1 1 0 0 1 2 0zm24 0a1 1 0 1 1-2 0 1 1 0 0 1 2 0zm24 0a1 1 0 1 1-2 0 1 1 0 0 1 2 0z"/><path fill="#fff" fill-opacity=".3" d="M412.273 341a1 1 0 1 1 0 2 1 1 0 0 1 0-2z"/><path fill="#fff" fill-opacity=".2" d="M436.273 341a1 1 0 1 1 0 2 1 1 0 0 1 0-2z"/><path fill="#fff" fill-opacity=".1" d="M460.273 341a1 1 0 1 1 0 2 1 1 0 0 1 0-2zm25 1a1 1 0 1 1-2 0 1 1 0 0 1 2 0z"/><path fill="#fff" fill-opacity=".2" d="M509.273 342a1 1 0 1 1-2 0 1 1 0 0 1 2 0z"/><path fill="#fff" fill-opacity=".3" d="M533.273 342a1 1 0 1 1-2 0 1 1 0 0 1 2 0zm24 0a1 1 0 1 1-2 0 1 1 0 0 1 2 0zm24 0a1 1 0 1 1-2 0 1 1 0 0 1 2 0zm24 0a1 1 0 1 1-2 0 1 1 0 0 1 2 0zm23-1a1 1 0 1 1 0 2 1 1 0 0 1 0-2z"/><path fill="#fff" fill-opacity=".2" d="M652.273 341a1 1 0 1 1 0 2 1 1 0 0 1 0-2z"/><path fill="#fff" fill-opacity=".8" d="M676.273 341a1 1 0 1 1 0 2 1 1 0 0 1 0-2z"/><path fill="#fff" fill-opacity=".1" d="M701.273 342a1 1 0 1 1-2 0 1 1 0 0 1 2 0z"/><path fill="#fff" fill-opacity=".2" d="M725.273 342a1 1 0 1 1-2 0 1 1 0 0 1 2 0zm24 0a1 1 0 1 1-2 0 1 1 0 0 1 2 0z"/><path fill="#fff" fill-opacity=".8" d="M773.273 342a1 1 0 1 1-2 0 1 1 0 0 1 2 0z"/><path fill="#fff" fill-opacity=".2" d="M797.273 342a1 1 0 1 1-2 0 1 1 0 0 1 2 0zm24 0a1 1 0 1 1-2 0 1 1 0 0 1 2 0zm23-1a1 1 0 1 1 0 2 1 1 0 0 1 0-2zm24 0a1 1 0 1 1 0 2 1 1 0 0 1 0-2z"/><path fill="#fff" fill-opacity=".1" d="M892.273 341a1 1 0 1 1 0 2 1 1 0 0 1 0-2zm25 1a1 1 0 1 1-2 0 1 1 0 0 1 2 0z"/><path fill="#fff" fill-opacity=".8" d="M941.273 342a1 1 0 1 1-2 0 1 1 0 0 1 2 0z"/><path fill="#fff" fill-opacity=".1" d="M965.273 342a1 1 0 1 1-2 0 1 1 0 0 1 2 0zm24 0a1 1 0 1 1-2 0 1 1 0 0 1 2 0zm23.997 0c0 .552-.45 1-1 1s-1-.448-1-1 .45-1 1-1 1 .448 1 1zm24 0c0 .552-.45 1-1 1s-1-.448-1-1 .45-1 1-1 1 .448 1 1zm23-1c.55 0 1 .448 1 1s-.45 1-1 1-1-.448-1-1 .45-1 1-1zm24 0c.55 0 1 .448 1 1s-.45 1-1 1-1-.448-1-1 .45-1 1-1zm24 0c.55 0 1 .448 1 1s-.45 1-1 1-1-.448-1-1 .45-1 1-1zm25 1c0 .552-.45 1-1 1s-1-.448-1-1 .45-1 1-1 1 .448 1 1zm24 0c0 .552-.45 1-1 1s-1-.448-1-1 .45-1 1-1 1 .448 1 1zm24 0c0 .552-.45 1-1 1s-1-.448-1-1 .45-1 1-1 1 .448 1 1zm24 0c0 .552-.45 1-1 1s-1-.448-1-1 .45-1 1-1 1 .448 1 1z"/><path fill="#fff" fill-opacity=".8" d="M1229.27 342c0 .552-.45 1-1 1s-1-.448-1-1 .45-1 1-1 1 .448 1 1zm24 0c0 .552-.45 1-1 1s-1-.448-1-1 .45-1 1-1 1 .448 1 1zm23-1c.55 0 1 .448 1 1s-.45 1-1 1-1-.448-1-1 .45-1 1-1zm24 0c.55 0 1 .448 1 1s-.45 1-1 1-1-.448-1-1 .45-1 1-1zm24 0c.55 0 1 .448 1 1s-.45 1-1 1-1-.448-1-1 .45-1 1-1z"/><path fill="#fff" fill-opacity=".1" d="M1349.27 342c0 .552-.45 1-1 1s-1-.448-1-1 .45-1 1-1 1 .448 1 1z"/><path fill="#fff" fill-opacity=".8" d="M1373.27 342c0 .552-.45 1-1 1s-1-.448-1-1 .45-1 1-1 1 .448 1 1z"/><path fill="#fff" fill-opacity=".2" d="M1397.27 342c0 .552-.45 1-1 1s-1-.448-1-1 .45-1 1-1 1 .448 1 1zm24 0c0 .552-.45 1-1 1s-1-.448-1-1 .45-1 1-1 1 .448 1 1zm24 0c0 .552-.45 1-1 1s-1-.448-1-1 .45-1 1-1 1 .448 1 1zm24 0c0 .552-.45 1-1 1s-1-.448-1-1 .45-1 1-1 1 .448 1 1zm23-1c.55 0 1 .448 1 1s-.45 1-1 1-1-.448-1-1 .45-1 1-1zm24 0c.55 0 1 .448 1 1s-.45 1-1 1-1-.448-1-1 .45-1 1-1z"/><path fill="#fff" fill-opacity=".1" d="M1540.27 341c.55 0 1 .448 1 1s-.45 1-1 1-1-.448-1-1 .45-1 1-1zm25 1c0 .552-.45 1-1 1s-1-.448-1-1 .45-1 1-1 1 .448 1 1z"/><path fill="#fff" fill-opacity=".2" d="M1589.27 342c0 .552-.45 1-1 1s-1-.448-1-1 .45-1 1-1 1 .448 1 1z"/><path fill="#fff" fill-opacity=".3" d="M1613.27 342c0 .552-.45 1-1 1s-1-.448-1-1 .45-1 1-1 1 .448 1 1zm24 0c0 .552-.45 1-1 1s-1-.448-1-1 .45-1 1-1 1 .448 1 1z"/><path fill="#fff" fill-opacity=".2" d="M4.273 317a1 1 0 1 1 0 2 1 1 0 0 1 0-2z"/><path fill="#fff" fill-opacity=".1" d="M28.273 317a1 1 0 1 1 0 2 1 1 0 0 1 0-2zm25 1a1 1 0 1 1-2 0 1 1 0 0 1 2 0z"/><path fill="#fff" fill-opacity=".8" d="M77.273 318a1 1 0 1 1-2 0 1 1 0 0 1 2 0z"/><path fill="#fff" fill-opacity=".3" d="M101.273 318a1 1 0 1 1-2 0 1 1 0 0 1 2 0z"/><path fill="#fff" fill-opacity=".4" d="M125.273 318a1 1 0 1 1-2 0 1 1 0 0 1 2 0z"/><path fill="#fff" fill-opacity=".8" d="M149.273 318a1 1 0 1 1-2 0 1 1 0 0 1 2 0z"/><path fill="#fff" fill-opacity=".4" d="M173.273 318a1 1 0 1 1-2 0 1 1 0 0 1 2 0z"/><path fill="#fff" fill-opacity=".3" d="M196.273 317a1 1 0 1 1 0 2 1 1 0 0 1 0-2z"/><path fill="#fff" fill-opacity=".2" d="M220.273 317a1 1 0 1 1 0 2 1 1 0 0 1 0-2z"/><path fill="#fff" fill-opacity=".8" d="M244.273 317a1 1 0 1 1 0 2 1 1 0 0 1 0-2z"/><path fill="#fff" fill-opacity=".1" d="M269.273 318a1 1 0 1 1-2 0 1 1 0 0 1 2 0z"/><path fill="#fff" fill-opacity=".2" d="M293.273 318a1 1 0 1 1-2 0 1 1 0 0 1 2 0z"/><path fill="#fff" fill-opacity=".3" d="M317.273 318a1 1 0 1 1-2 0 1 1 0 0 1 2 0z"/><path fill="#fff" fill-opacity=".4" d="M341.273 318a1 1 0 1 1-2 0 1 1 0 0 1 2 0zm24 0a1 1 0 1 1-2 0 1 1 0 0 1 2 0zm24 0a1 1 0 1 1-2 0 1 1 0 0 1 2 0z"/><path fill="#fff" fill-opacity=".2" d="M413.273 318a1 1 0 1 1-2 0 1 1 0 0 1 2 0z"/><path fill="#fff" fill-opacity=".4" d="M437.273 318a1 1 0 1 1-2 0 1 1 0 0 1 2 0zm24 0a1 1 0 1 1-2 0 1 1 0 0 1 2 0z"/><path fill="#fff" fill-opacity=".2" d="M485.273 318a1 1 0 1 1-2 0 1 1 0 0 1 2 0z"/><path fill="#fff" fill-opacity=".4" d="M509.273 318a1 1 0 1 1-2 0 1 1 0 0 1 2 0z"/><path fill="#fff" fill-opacity=".8" d="M533.273 318a1 1 0 1 1-2 0 1 1 0 0 1 2 0z"/><path fill="#fff" fill-opacity=".3" d="M556.273 317a1 1 0 1 1 0 2 1 1 0 0 1 0-2z"/><path fill="#fff" fill-opacity=".2" d="M580.273 317a1 1 0 1 1 0 2 1 1 0 0 1 0-2z"/><path fill="#fff" fill-opacity=".1" d="M604.273 317a1 1 0 1 1 0 2 1 1 0 0 1 0-2zm25 1a1 1 0 1 1-2 0 1 1 0 0 1 2 0z"/><path fill="#fff" fill-opacity=".2" d="M653.273 318a1 1 0 1 1-2 0 1 1 0 0 1 2 0z"/><path fill="#fff" fill-opacity=".3" d="M677.273 318a1 1 0 1 1-2 0 1 1 0 0 1 2 0z"/><path fill="#fff" fill-opacity=".4" d="M701.273 318a1 1 0 1 1-2 0 1 1 0 0 1 2 0zm24 0a1 1 0 1 1-2 0 1 1 0 0 1 2 0zm24 0a1 1 0 1 1-2 0 1 1 0 0 1 2 0z"/><path fill="#fff" fill-opacity=".3" d="M772.273 317a1 1 0 1 1 0 2 1 1 0 0 1 0-2z"/><path fill="#fff" fill-opacity=".2" d="M796.273 317a1 1 0 1 1 0 2 1 1 0 0 1 0-2z"/><path fill="#fff" fill-opacity=".1" d="M820.273 317a1 1 0 1 1 0 2 1 1 0 0 1 0-2zm25 1a1 1 0 1 1-2 0 1 1 0 0 1 2 0z"/><path fill="#fff" fill-opacity=".2" d="M869.273 318a1 1 0 1 1-2 0 1 1 0 0 1 2 0z"/><path fill="#fff" fill-opacity=".3" d="M893.273 318a1 1 0 1 1-2 0 1 1 0 0 1 2 0zm24 0a1 1 0 1 1-2 0 1 1 0 0 1 2 0zm24 0a1 1 0 1 1-2 0 1 1 0 0 1 2 0zm24 0a1 1 0 1 1-2 0 1 1 0 0 1 2 0zm23-1a1 1 0 1 1 0 2 1 1 0 0 1 0-2z"/><path fill="#fff" fill-opacity=".2" d="M1012.27 317c.55 0 1 .448 1 1s-.45 1-1 1-1-.448-1-1 .45-1 1-1z"/><path fill="#fff" fill-opacity=".8" d="M1036.27 317c.55 0 1 .448 1 1s-.45 1-1 1-1-.448-1-1 .45-1 1-1z"/><path fill="#fff" fill-opacity=".1" d="M1061.27 318c0 .552-.45 1-1 1s-1-.448-1-1 .45-1 1-1 1 .448 1 1z"/><path fill="#fff" fill-opacity=".2" d="M1085.27 318c0 .552-.45 1-1 1s-1-.448-1-1 .45-1 1-1 1 .448 1 1zm24 0c0 .552-.45 1-1 1s-1-.448-1-1 .45-1 1-1 1 .448 1 1z"/><path fill="#fff" fill-opacity=".8" d="M1133.27 318c0 .552-.45 1-1 1s-1-.448-1-1 .45-1 1-1 1 .448 1 1z"/><path fill="#fff" fill-opacity=".2" d="M1157.27 318c0 .552-.45 1-1 1s-1-.448-1-1 .45-1 1-1 1 .448 1 1zm24 0c0 .552-.45 1-1 1s-1-.448-1-1 .45-1 1-1 1 .448 1 1zm23-1c.55 0 1 .448 1 1s-.45 1-1 1-1-.448-1-1 .45-1 1-1zm24 0c.55 0 1 .448 1 1s-.45 1-1 1-1-.448-1-1 .45-1 1-1z"/><path fill="#fff" fill-opacity=".1" d="M1252.27 317c.55 0 1 .448 1 1s-.45 1-1 1-1-.448-1-1 .45-1 1-1z"/><path fill="#fff" fill-opacity=".8" d="M1277.27 318c0 .552-.45 1-1 1s-1-.448-1-1 .45-1 1-1 1 .448 1 1zm24 0c0 .552-.45 1-1 1s-1-.448-1-1 .45-1 1-1 1 .448 1 1zm24 0c0 .552-.45 1-1 1s-1-.448-1-1 .45-1 1-1 1 .448 1 1zm24 0c0 .552-.45 1-1 1s-1-.448-1-1 .45-1 1-1 1 .448 1 1z"/><path fill="#fff" fill-opacity=".1" d="M1373.27 318c0 .552-.45 1-1 1s-1-.448-1-1 .45-1 1-1 1 .448 1 1z"/><path fill="#fff" fill-opacity=".8" d="M1397.27 318c0 .552-.45 1-1 1s-1-.448-1-1 .45-1 1-1 1 .448 1 1zm23-1c.55 0 1 .448 1 1s-.45 1-1 1-1-.448-1-1 .45-1 1-1z"/><path fill="#fff" fill-opacity=".1" d="M1445.27 318c0 .552-.45 1-1 1s-1-.448-1-1 .45-1 1-1 1 .448 1 1zm24 0c0 .552-.45 1-1 1s-1-.448-1-1 .45-1 1-1 1 .448 1 1zm24 0c0 .552-.45 1-1 1s-1-.448-1-1 .45-1 1-1 1 .448 1 1z"/><path fill="#fff" fill-opacity=".8" d="M1517.27 318c0 .552-.45 1-1 1s-1-.448-1-1 .45-1 1-1 1 .448 1 1zm24 0c0 .552-.45 1-1 1s-1-.448-1-1 .45-1 1-1 1 .448 1 1z"/><path fill="#fff" fill-opacity=".1" d="M1565.27 318c0 .552-.45 1-1 1s-1-.448-1-1 .45-1 1-1 1 .448 1 1zm23-1c.55 0 1 .448 1 1s-.45 1-1 1-1-.448-1-1 .45-1 1-1zm24 0c.55 0 1 .448 1 1s-.45 1-1 1-1-.448-1-1 .45-1 1-1zm24 0c.55 0 1 .448 1 1s-.45 1-1 1-1-.448-1-1 .45-1 1-1z"/><path fill="#fff" fill-opacity=".2" d="M5.273 294a1 1 0 1 1-2 0 1 1 0 0 1 2 0zm24 0a1 1 0 1 1-2 0 1 1 0 0 1 2 0zm24 0a1 1 0 1 1-2 0 1 1 0 0 1 2 0zm23-1a1 1 0 1 1 0 2 1 1 0 0 1 0-2zm24 0a1 1 0 1 1 0 2 1 1 0 0 1 0-2z"/><path fill="#fff" fill-opacity=".1" d="M124.273 293a1 1 0 1 1 0 2 1 1 0 0 1 0-2zm25 1a1 1 0 1 1-2 0 1 1 0 0 1 2 0z"/><path fill="#fff" fill-opacity=".2" d="M173.273 294a1 1 0 1 1-2 0 1 1 0 0 1 2 0z"/><path fill="#fff" fill-opacity=".3" d="M197.273 294a1 1 0 1 1-2 0 1 1 0 0 1 2 0zm24 0a1 1 0 1 1-2 0 1 1 0 0 1 2 0zm24 0a1 1 0 1 1-2 0 1 1 0 0 1 2 0zm24 0a1 1 0 1 1-2 0 1 1 0 0 1 2 0zm23-1a1 1 0 1 1 0 2 1 1 0 0 1 0-2z"/><path fill="#fff" fill-opacity=".2" d="M316.273 293a1 1 0 1 1 0 2 1 1 0 0 1 0-2z"/><path fill="#fff" fill-opacity=".1" d="M340.273 293a1 1 0 1 1 0 2 1 1 0 0 1 0-2zm25 1a1 1 0 1 1-2 0 1 1 0 0 1 2 0z"/><path fill="#fff" fill-opacity=".2" d="M389.273 294a1 1 0 1 1-2 0 1 1 0 0 1 2 0z"/><path fill="#fff" fill-opacity=".3" d="M413.273 294a1 1 0 1 1-2 0 1 1 0 0 1 2 0z"/><path fill="#fff" fill-opacity=".4" d="M437.273 294a1 1 0 1 1-2 0 1 1 0 0 1 2 0z"/><path fill="#fff" fill-opacity=".8" d="M461.273 294a1 1 0 1 1-2 0 1 1 0 0 1 2 0z"/><path fill="#fff" fill-opacity=".4" d="M485.273 294a1 1 0 1 1-2 0 1 1 0 0 1 2 0z"/><path fill="#fff" fill-opacity=".3" d="M508.273 293a1 1 0 1 1 0 2 1 1 0 0 1 0-2z"/><path fill="#fff" fill-opacity=".2" d="M532.273 293a1 1 0 1 1 0 2 1 1 0 0 1 0-2z"/><path fill="#fff" fill-opacity=".1" d="M556.273 293a1 1 0 1 1 0 2 1 1 0 0 1 0-2zm25 1a1 1 0 1 1-2 0 1 1 0 0 1 2 0z"/><path fill="#fff" fill-opacity=".2" d="M605.273 294a1 1 0 1 1-2 0 1 1 0 0 1 2 0z"/><path fill="#fff" fill-opacity=".3" d="M629.273 294a1 1 0 1 1-2 0 1 1 0 0 1 2 0z"/><path fill="#fff" fill-opacity=".4" d="M653.273 294a1 1 0 1 1-2 0 1 1 0 0 1 2 0zm24 0a1 1 0 1 1-2 0 1 1 0 0 1 2 0zm24 0a1 1 0 1 1-2 0 1 1 0 0 1 2 0z"/><path fill="#fff" fill-opacity=".3" d="M724.273 293a1 1 0 1 1 0 2 1 1 0 0 1 0-2z"/><path fill="#fff" fill-opacity=".2" d="M748.273 293a1 1 0 1 1 0 2 1 1 0 0 1 0-2z"/><path fill="#fff" fill-opacity=".1" d="M772.273 293a1 1 0 1 1 0 2 1 1 0 0 1 0-2zm25 1a1 1 0 1 1-2 0 1 1 0 0 1 2 0z"/><path fill="#fff" fill-opacity=".2" d="M821.273 294a1 1 0 1 1-2 0 1 1 0 0 1 2 0z"/><path fill="#fff" fill-opacity=".3" d="M845.273 294a1 1 0 1 1-2 0 1 1 0 0 1 2 0z"/><path fill="#fff" fill-opacity=".8" d="M869.273 294a1 1 0 1 1-2 0 1 1 0 0 1 2 0z"/><path fill="#fff" fill-opacity=".4" d="M893.273 294a1 1 0 1 1-2 0 1 1 0 0 1 2 0zm24 0a1 1 0 1 1-2 0 1 1 0 0 1 2 0z"/><path fill="#fff" fill-opacity=".3" d="M940.273 293a1 1 0 1 1 0 2 1 1 0 0 1 0-2z"/><path fill="#fff" fill-opacity=".2" d="M964.273 293a1 1 0 1 1 0 2 1 1 0 0 1 0-2z"/><path fill="#fff" fill-opacity=".1" d="M988.273 293a1 1 0 1 1 0 2 1 1 0 0 1 0-2zm24.997 1c0 .552-.45 1-1 1s-1-.448-1-1 .45-1 1-1 1 .448 1 1z"/><path fill="#fff" fill-opacity=".2" d="M1037.27 294c0 .552-.45 1-1 1s-1-.448-1-1 .45-1 1-1 1 .448 1 1z"/><path fill="#fff" fill-opacity=".3" d="M1061.27 294c0 .552-.45 1-1 1s-1-.448-1-1 .45-1 1-1 1 .448 1 1zm24 0c0 .552-.45 1-1 1s-1-.448-1-1 .45-1 1-1 1 .448 1 1zm24 0c0 .552-.45 1-1 1s-1-.448-1-1 .45-1 1-1 1 .448 1 1zm24 0c0 .552-.45 1-1 1s-1-.448-1-1 .45-1 1-1 1 .448 1 1zm23-1c.55 0 1 .448 1 1s-.45 1-1 1-1-.448-1-1 .45-1 1-1z"/><path fill="#fff" fill-opacity=".2" d="M1180.27 293c.55 0 1 .448 1 1s-.45 1-1 1-1-.448-1-1 .45-1 1-1z"/><path fill="#fff" fill-opacity=".8" d="M1204.27 293c.55 0 1 .448 1 1s-.45 1-1 1-1-.448-1-1 .45-1 1-1z"/><path fill="#fff" fill-opacity=".1" d="M1229.27 294c0 .552-.45 1-1 1s-1-.448-1-1 .45-1 1-1 1 .448 1 1z"/><path fill="#fff" fill-opacity=".2" d="M1253.27 294c0 .552-.45 1-1 1s-1-.448-1-1 .45-1 1-1 1 .448 1 1zm24 0c0 .552-.45 1-1 1s-1-.448-1-1 .45-1 1-1 1 .448 1 1z"/><path fill="#fff" fill-opacity=".8" d="M1301.27 294c0 .552-.45 1-1 1s-1-.448-1-1 .45-1 1-1 1 .448 1 1z"/><path fill="#fff" fill-opacity=".2" d="M1325.27 294c0 .552-.45 1-1 1s-1-.448-1-1 .45-1 1-1 1 .448 1 1zm24 0c0 .552-.45 1-1 1s-1-.448-1-1 .45-1 1-1 1 .448 1 1zm23-1c.55 0 1 .448 1 1s-.45 1-1 1-1-.448-1-1 .45-1 1-1zm24 0c.55 0 1 .448 1 1s-.45 1-1 1-1-.448-1-1 .45-1 1-1z"/><path fill="#fff" fill-opacity=".1" d="M1420.27 293c.55 0 1 .448 1 1s-.45 1-1 1-1-.448-1-1 .45-1 1-1zm25 1c0 .552-.45 1-1 1s-1-.448-1-1 .45-1 1-1 1 .448 1 1zm24 0c0 .552-.45 1-1 1s-1-.448-1-1 .45-1 1-1 1 .448 1 1zm24 0c0 .552-.45 1-1 1s-1-.448-1-1 .45-1 1-1 1 .448 1 1zm24 0c0 .552-.45 1-1 1s-1-.448-1-1 .45-1 1-1 1 .448 1 1zm24 0c0 .552-.45 1-1 1s-1-.448-1-1 .45-1 1-1 1 .448 1 1zm24 0c0 .552-.45 1-1 1s-1-.448-1-1 .45-1 1-1 1 .448 1 1zm23-1c.55 0 1 .448 1 1s-.45 1-1 1-1-.448-1-1 .45-1 1-1zm24 0c.55 0 1 .448 1 1s-.45 1-1 1-1-.448-1-1 .45-1 1-1zm24 0c.55 0 1 .448 1 1s-.45 1-1 1-1-.448-1-1 .45-1 1-1zM5.273 270a1 1 0 1 1-2 0 1 1 0 0 1 2 0zm24 0a1 1 0 1 1-2 0 1 1 0 0 1 2 0zm24 0a1 1 0 1 1-2 0 1 1 0 0 1 2 0zm23-1a1 1 0 1 1 0 2 1 1 0 0 1 0-2zm24 0a1 1 0 1 1 0 2 1 1 0 0 1 0-2zm24 0a1 1 0 1 1 0 2 1 1 0 0 1 0-2zm25 1a1 1 0 1 1-2 0 1 1 0 0 1 2 0z"/><path fill="#fff" fill-opacity=".8" d="M173.273 270a1 1 0 1 1-2 0 1 1 0 0 1 2 0z"/><path fill="#fff" fill-opacity=".2" d="M197.273 270a1 1 0 1 1-2 0 1 1 0 0 1 2 0zm24 0a1 1 0 1 1-2 0 1 1 0 0 1 2 0zm24 0a1 1 0 1 1-2 0 1 1 0 0 1 2 0zm24 0a1 1 0 1 1-2 0 1 1 0 0 1 2 0zm23-1a1 1 0 1 1 0 2 1 1 0 0 1 0-2zm24 0a1 1 0 1 1 0 2 1 1 0 0 1 0-2z"/><path fill="#fff" fill-opacity=".1" d="M340.273 269a1 1 0 1 1 0 2 1 1 0 0 1 0-2zm25 1a1 1 0 1 1-2 0 1 1 0 0 1 2 0z"/><path fill="#fff" fill-opacity=".2" d="M389.273 270a1 1 0 1 1-2 0 1 1 0 0 1 2 0z"/><path fill="#fff" fill-opacity=".3" d="M413.273 270a1 1 0 1 1-2 0 1 1 0 0 1 2 0zm24 0a1 1 0 1 1-2 0 1 1 0 0 1 2 0zm24 0a1 1 0 1 1-2 0 1 1 0 0 1 2 0zm24 0a1 1 0 1 1-2 0 1 1 0 0 1 2 0zm23-1a1 1 0 1 1 0 2 1 1 0 0 1 0-2z"/><path fill="#fff" fill-opacity=".2" d="M532.273 269a1 1 0 1 1 0 2 1 1 0 0 1 0-2z"/><path fill="#fff" fill-opacity=".1" d="M556.273 269a1 1 0 1 1 0 2 1 1 0 0 1 0-2zm25 1a1 1 0 1 1-2 0 1 1 0 0 1 2 0z"/><path fill="#fff" fill-opacity=".2" d="M605.273 270a1 1 0 1 1-2 0 1 1 0 0 1 2 0z"/><path fill="#fff" fill-opacity=".3" d="M629.273 270a1 1 0 1 1-2 0 1 1 0 0 1 2 0z"/><path fill="#fff" fill-opacity=".4" d="M653.273 270a1 1 0 1 1-2 0 1 1 0 0 1 2 0z"/><path fill="#fff" fill-opacity=".8" d="M677.273 270a1 1 0 1 1-2 0 1 1 0 0 1 2 0z"/><path fill="#fff" fill-opacity=".4" d="M701.273 270a1 1 0 1 1-2 0 1 1 0 0 1 2 0z"/><path fill="#fff" fill-opacity=".3" d="M724.273 269a1 1 0 1 1 0 2 1 1 0 0 1 0-2z"/><path fill="#fff" fill-opacity=".2" d="M748.273 269a1 1 0 1 1 0 2 1 1 0 0 1 0-2z"/><path fill="#fff" fill-opacity=".1" d="M772.273 269a1 1 0 1 1 0 2 1 1 0 0 1 0-2zm25 1a1 1 0 1 1-2 0 1 1 0 0 1 2 0z"/><path fill="#fff" fill-opacity=".2" d="M821.273 270a1 1 0 1 1-2 0 1 1 0 0 1 2 0z"/><path fill="#fff" fill-opacity=".3" d="M845.273 270a1 1 0 1 1-2 0 1 1 0 0 1 2 0z"/><path fill="#fff" fill-opacity=".4" d="M869.273 270a1 1 0 1 1-2 0 1 1 0 0 1 2 0zm24 0a1 1 0 1 1-2 0 1 1 0 0 1 2 0zm24 0a1 1 0 1 1-2 0 1 1 0 0 1 2 0z"/><path fill="#fff" fill-opacity=".3" d="M940.273 269a1 1 0 1 1 0 2 1 1 0 0 1 0-2z"/><path fill="#fff" fill-opacity=".2" d="M964.273 269a1 1 0 1 1 0 2 1 1 0 0 1 0-2z"/><path fill="#fff" fill-opacity=".1" d="M988.273 269a1 1 0 1 1 0 2 1 1 0 0 1 0-2zm24.997 1c0 .552-.45 1-1 1s-1-.448-1-1 .45-1 1-1 1 .448 1 1z"/><path fill="#fff" fill-opacity=".2" d="M1037.27 270c0 .552-.45 1-1 1s-1-.448-1-1 .45-1 1-1 1 .448 1 1z"/><path fill="#fff" fill-opacity=".3" d="M1061.27 270c0 .552-.45 1-1 1s-1-.448-1-1 .45-1 1-1 1 .448 1 1z"/><path fill="#fff" fill-opacity=".4" d="M1085.27 270c0 .552-.45 1-1 1s-1-.448-1-1 .45-1 1-1 1 .448 1 1z"/><path fill="#fff" fill-opacity=".8" d="M1109.27 270c0 .552-.45 1-1 1s-1-.448-1-1 .45-1 1-1 1 .448 1 1z"/><path fill="#fff" fill-opacity=".4" d="M1133.27 270c0 .552-.45 1-1 1s-1-.448-1-1 .45-1 1-1 1 .448 1 1z"/><path fill="#fff" fill-opacity=".3" d="M1156.27 269c.55 0 1 .448 1 1s-.45 1-1 1-1-.448-1-1 .45-1 1-1z"/><path fill="#fff" fill-opacity=".2" d="M1180.27 269c.55 0 1 .448 1 1s-.45 1-1 1-1-.448-1-1 .45-1 1-1z"/><path fill="#fff" fill-opacity=".8" d="M1204.27 269c.55 0 1 .448 1 1s-.45 1-1 1-1-.448-1-1 .45-1 1-1z"/><path fill="#fff" fill-opacity=".1" d="M1229.27 270c0 .552-.45 1-1 1s-1-.448-1-1 .45-1 1-1 1 .448 1 1z"/><path fill="#fff" fill-opacity=".2" d="M1253.27 270c0 .552-.45 1-1 1s-1-.448-1-1 .45-1 1-1 1 .448 1 1z"/><path fill="#fff" fill-opacity=".3" d="M1277.27 270c0 .552-.45 1-1 1s-1-.448-1-1 .45-1 1-1 1 .448 1 1zm24 0c0 .552-.45 1-1 1s-1-.448-1-1 .45-1 1-1 1 .448 1 1zm24 0c0 .552-.45 1-1 1s-1-.448-1-1 .45-1 1-1 1 .448 1 1zm24 0c0 .552-.45 1-1 1s-1-.448-1-1 .45-1 1-1 1 .448 1 1zm23-1c.55 0 1 .448 1 1s-.45 1-1 1-1-.448-1-1 .45-1 1-1z"/><path fill="#fff" fill-opacity=".2" d="M1396.27 269c.55 0 1 .448 1 1s-.45 1-1 1-1-.448-1-1 .45-1 1-1z"/><path fill="#fff" fill-opacity=".8" d="M1420.27 269c.55 0 1 .448 1 1s-.45 1-1 1-1-.448-1-1 .45-1 1-1z"/><path fill="#fff" fill-opacity=".1" d="M1445.27 270c0 .552-.45 1-1 1s-1-.448-1-1 .45-1 1-1 1 .448 1 1z"/><path fill="#fff" fill-opacity=".2" d="M1469.27 270c0 .552-.45 1-1 1s-1-.448-1-1 .45-1 1-1 1 .448 1 1zm24 0c0 .552-.45 1-1 1s-1-.448-1-1 .45-1 1-1 1 .448 1 1z"/><path fill="#fff" fill-opacity=".8" d="M1517.27 270c0 .552-.45 1-1 1s-1-.448-1-1 .45-1 1-1 1 .448 1 1z"/><path fill="#fff" fill-opacity=".2" d="M1541.27 270c0 .552-.45 1-1 1s-1-.448-1-1 .45-1 1-1 1 .448 1 1zm24 0c0 .552-.45 1-1 1s-1-.448-1-1 .45-1 1-1 1 .448 1 1zm23-1c.55 0 1 .448 1 1s-.45 1-1 1-1-.448-1-1 .45-1 1-1zm24 0c.55 0 1 .448 1 1s-.45 1-1 1-1-.448-1-1 .45-1 1-1z"/><path fill="#fff" fill-opacity=".1" d="M1636.27 269c.55 0 1 .448 1 1s-.45 1-1 1-1-.448-1-1 .45-1 1-1zM5.273 246a1 1 0 1 1-2 0 1 1 0 0 1 2 0zm24 0a1 1 0 1 1-2 0 1 1 0 0 1 2 0zm24 0a1 1 0 1 1-2 0 1 1 0 0 1 2 0zm23-1a1 1 0 1 1 0 2 1 1 0 0 1 0-2zm24 0a1 1 0 1 1 0 2 1 1 0 0 1 0-2zm24 0a1 1 0 1 1 0 2 1 1 0 0 1 0-2zm25 1a1 1 0 1 1-2 0 1 1 0 0 1 2 0zm24 0a1 1 0 1 1-2 0 1 1 0 0 1 2 0zm24 0a1 1 0 1 1-2 0 1 1 0 0 1 2 0zm24 0a1 1 0 1 1-2 0 1 1 0 0 1 2 0zm24 0a1 1 0 1 1-2 0 1 1 0 0 1 2 0zm24 0a1 1 0 1 1-2 0 1 1 0 0 1 2 0zm23-1a1 1 0 1 1 0 2 1 1 0 0 1 0-2zm24 0a1 1 0 1 1 0 2 1 1 0 0 1 0-2zm24 0a1 1 0 1 1 0 2 1 1 0 0 1 0-2zm25 1a1 1 0 1 1-2 0 1 1 0 0 1 2 0z"/><path fill="#fff" fill-opacity=".8" d="M389.273 246a1 1 0 1 1-2 0 1 1 0 0 1 2 0zm24 0a1 1 0 1 1-2 0 1 1 0 0 1 2 0z"/><path fill="#fff" fill-opacity=".2" d="M437.273 246a1 1 0 1 1-2 0 1 1 0 0 1 2 0zm24 0a1 1 0 1 1-2 0 1 1 0 0 1 2 0zm24 0a1 1 0 1 1-2 0 1 1 0 0 1 2 0z"/><path fill="#fff" fill-opacity=".8" d="M508.273 245a1 1 0 1 1 0 2 1 1 0 0 1 0-2z"/><path fill="#fff" fill-opacity=".2" d="M532.273 245a1 1 0 1 1 0 2 1 1 0 0 1 0-2z"/><path fill="#fff" fill-opacity=".1" d="M556.273 245a1 1 0 1 1 0 2 1 1 0 0 1 0-2zm25 1a1 1 0 1 1-2 0 1 1 0 0 1 2 0z"/><path fill="#fff" fill-opacity=".2" d="M605.273 246a1 1 0 1 1-2 0 1 1 0 0 1 2 0z"/><path fill="#fff" fill-opacity=".3" d="M629.273 246a1 1 0 1 1-2 0 1 1 0 0 1 2 0zm24 0a1 1 0 1 1-2 0 1 1 0 0 1 2 0zm24 0a1 1 0 1 1-2 0 1 1 0 0 1 2 0zm24 0a1 1 0 1 1-2 0 1 1 0 0 1 2 0zm23-1a1 1 0 1 1 0 2 1 1 0 0 1 0-2z"/><path fill="#fff" fill-opacity=".2" d="M748.273 245a1 1 0 1 1 0 2 1 1 0 0 1 0-2z"/><path fill="#fff" fill-opacity=".1" d="M772.273 245a1 1 0 1 1 0 2 1 1 0 0 1 0-2zm25 1a1 1 0 1 1-2 0 1 1 0 0 1 2 0z"/><path fill="#fff" fill-opacity=".2" d="M821.273 246a1 1 0 1 1-2 0 1 1 0 0 1 2 0z"/><path fill="#fff" fill-opacity=".3" d="M845.273 246a1 1 0 1 1-2 0 1 1 0 0 1 2 0z"/><path fill="#fff" fill-opacity=".4" d="M869.273 246a1 1 0 1 1-2 0 1 1 0 0 1 2 0z"/><path fill="#fff" fill-opacity=".8" d="M893.273 246a1 1 0 1 1-2 0 1 1 0 0 1 2 0z"/><path fill="#fff" fill-opacity=".4" d="M917.273 246a1 1 0 1 1-2 0 1 1 0 0 1 2 0z"/><path fill="#fff" fill-opacity=".3" d="M940.273 245a1 1 0 1 1 0 2 1 1 0 0 1 0-2z"/><path fill="#fff" fill-opacity=".2" d="M964.273 245a1 1 0 1 1 0 2 1 1 0 0 1 0-2z"/><path fill="#fff" fill-opacity=".1" d="M988.273 245a1 1 0 1 1 0 2 1 1 0 0 1 0-2zm24.997 1c0 .552-.45 1-1 1s-1-.448-1-1 .45-1 1-1 1 .448 1 1z"/><path fill="#fff" fill-opacity=".2" d="M1037.27 246c0 .552-.45 1-1 1s-1-.448-1-1 .45-1 1-1 1 .448 1 1z"/><path fill="#fff" fill-opacity=".3" d="M1061.27 246c0 .552-.45 1-1 1s-1-.448-1-1 .45-1 1-1 1 .448 1 1z"/><path fill="#fff" fill-opacity=".4" d="M1085.27 246c0 .552-.45 1-1 1s-1-.448-1-1 .45-1 1-1 1 .448 1 1zm24 0c0 .552-.45 1-1 1s-1-.448-1-1 .45-1 1-1 1 .448 1 1zm24 0c0 .552-.45 1-1 1s-1-.448-1-1 .45-1 1-1 1 .448 1 1z"/><path fill="#fff" fill-opacity=".2" d="M1157.27 246c0 .552-.45 1-1 1s-1-.448-1-1 .45-1 1-1 1 .448 1 1z"/><path fill="#fff" fill-opacity=".4" d="M1181.27 246c0 .552-.45 1-1 1s-1-.448-1-1 .45-1 1-1 1 .448 1 1zm24 0c0 .552-.45 1-1 1s-1-.448-1-1 .45-1 1-1 1 .448 1 1z"/><path fill="#fff" fill-opacity=".2" d="M1229.27 246c0 .552-.45 1-1 1s-1-.448-1-1 .45-1 1-1 1 .448 1 1z"/><path fill="#fff" fill-opacity=".4" d="M1253.27 246c0 .552-.45 1-1 1s-1-.448-1-1 .45-1 1-1 1 .448 1 1zm24 0c0 .552-.45 1-1 1s-1-.448-1-1 .45-1 1-1 1 .448 1 1z"/><path fill="#fff" fill-opacity=".3" d="M1300.27 245c.55 0 1 .448 1 1s-.45 1-1 1-1-.448-1-1 .45-1 1-1z"/><path fill="#fff" fill-opacity=".2" d="M1324.27 245c.55 0 1 .448 1 1s-.45 1-1 1-1-.448-1-1 .45-1 1-1z"/><path fill="#fff" fill-opacity=".1" d="M1348.27 245c.55 0 1 .448 1 1s-.45 1-1 1-1-.448-1-1 .45-1 1-1zm25 1c0 .552-.45 1-1 1s-1-.448-1-1 .45-1 1-1 1 .448 1 1z"/><path fill="#fff" fill-opacity=".2" d="M1397.27 246c0 .552-.45 1-1 1s-1-.448-1-1 .45-1 1-1 1 .448 1 1z"/><path fill="#fff" fill-opacity=".3" d="M1421.27 246c0 .552-.45 1-1 1s-1-.448-1-1 .45-1 1-1 1 .448 1 1z"/><path fill="#fff" fill-opacity=".8" d="M1445.27 246c0 .552-.45 1-1 1s-1-.448-1-1 .45-1 1-1 1 .448 1 1z"/><path fill="#fff" fill-opacity=".4" d="M1469.27 246c0 .552-.45 1-1 1s-1-.448-1-1 .45-1 1-1 1 .448 1 1zm24 0c0 .552-.45 1-1 1s-1-.448-1-1 .45-1 1-1 1 .448 1 1z"/><path fill="#fff" fill-opacity=".3" d="M1516.27 245c.55 0 1 .448 1 1s-.45 1-1 1-1-.448-1-1 .45-1 1-1z"/><path fill="#fff" fill-opacity=".8" d="M1540.27 245c.55 0 1 .448 1 1s-.45 1-1 1-1-.448-1-1 .45-1 1-1z"/><path fill="#fff" fill-opacity=".1" d="M1564.27 245c.55 0 1 .448 1 1s-.45 1-1 1-1-.448-1-1 .45-1 1-1zm25 1c0 .552-.45 1-1 1s-1-.448-1-1 .45-1 1-1 1 .448 1 1z"/><path fill="#fff" fill-opacity=".2" d="M1613.27 246c0 .552-.45 1-1 1s-1-.448-1-1 .45-1 1-1 1 .448 1 1z"/><path fill="#fff" fill-opacity=".3" d="M1637.27 246c0 .552-.45 1-1 1s-1-.448-1-1 .45-1 1-1 1 .448 1 1zM4.273 221a1 1 0 1 1 0 2 1 1 0 0 1 0-2z"/><path fill="#fff" fill-opacity=".2" d="M28.273 221a1 1 0 1 1 0 2 1 1 0 0 1 0-2z"/><path fill="#fff" fill-opacity=".8" d="M52.273 221a1 1 0 1 1 0 2 1 1 0 0 1 0-2z"/><path fill="#fff" fill-opacity=".1" d="M77.273 222a1 1 0 1 1-2 0 1 1 0 0 1 2 0z"/><path fill="#fff" fill-opacity=".2" d="M101.273 222a1 1 0 1 1-2 0 1 1 0 0 1 2 0zm24 0a1 1 0 1 1-2 0 1 1 0 0 1 2 0z"/><path fill="#fff" fill-opacity=".8" d="M149.273 222a1 1 0 1 1-2 0 1 1 0 0 1 2 0z"/><path fill="#fff" fill-opacity=".2" d="M173.273 222a1 1 0 1 1-2 0 1 1 0 0 1 2 0zm24 0a1 1 0 1 1-2 0 1 1 0 0 1 2 0zm23-1a1 1 0 1 1 0 2 1 1 0 0 1 0-2zm24 0a1 1 0 1 1 0 2 1 1 0 0 1 0-2z"/><path fill="#fff" fill-opacity=".1" d="M268.273 221a1 1 0 1 1 0 2 1 1 0 0 1 0-2zm25 1a1 1 0 1 1-2 0 1 1 0 0 1 2 0zm24 0a1 1 0 1 1-2 0 1 1 0 0 1 2 0zm24 0a1 1 0 1 1-2 0 1 1 0 0 1 2 0zm24 0a1 1 0 1 1-2 0 1 1 0 0 1 2 0zm24 0a1 1 0 1 1-2 0 1 1 0 0 1 2 0zm24 0a1 1 0 1 1-2 0 1 1 0 0 1 2 0zm23-1a1 1 0 1 1 0 2 1 1 0 0 1 0-2zm25 1a1 1 0 1 1-2 0 1 1 0 0 1 2 0zm24 0a1 1 0 1 1-2 0 1 1 0 0 1 2 0zm24 0a1 1 0 1 1-2 0 1 1 0 0 1 2 0zm24 0a1 1 0 1 1-2 0 1 1 0 0 1 2 0zm24 0a1 1 0 1 1-2 0 1 1 0 0 1 2 0zm24 0a1 1 0 1 1-2 0 1 1 0 0 1 2 0zm23-1a1 1 0 1 1 0 2 1 1 0 0 1 0-2zm24 0a1 1 0 1 1 0 2 1 1 0 0 1 0-2zm24 0a1 1 0 1 1 0 2 1 1 0 0 1 0-2zm25 1a1 1 0 1 1-2 0 1 1 0 0 1 2 0z"/><path fill="#fff" fill-opacity=".8" d="M701.273 222a1 1 0 1 1-2 0 1 1 0 0 1 2 0z"/><path fill="#fff" fill-opacity=".2" d="M725.273 222a1 1 0 1 1-2 0 1 1 0 0 1 2 0z"/><path fill="#fff" fill-opacity=".8" d="M749.273 222a1 1 0 1 1-2 0 1 1 0 0 1 2 0zm24 0a1 1 0 1 1-2 0 1 1 0 0 1 2 0zm24 0a1 1 0 1 1-2 0 1 1 0 0 1 2 0zm23-1a1 1 0 1 1 0 2 1 1 0 0 1 0-2z"/><path fill="#fff" fill-opacity=".2" d="M844.273 221a1 1 0 1 1 0 2 1 1 0 0 1 0-2z"/><path fill="#fff" fill-opacity=".1" d="M868.273 221a1 1 0 1 1 0 2 1 1 0 0 1 0-2zm25 1a1 1 0 1 1-2 0 1 1 0 0 1 2 0z"/><path fill="#fff" fill-opacity=".2" d="M917.273 222a1 1 0 1 1-2 0 1 1 0 0 1 2 0z"/><path fill="#fff" fill-opacity=".3" d="M941.273 222a1 1 0 1 1-2 0 1 1 0 0 1 2 0zm24 0a1 1 0 1 1-2 0 1 1 0 0 1 2 0zm24 0a1 1 0 1 1-2 0 1 1 0 0 1 2 0zm23.997 0c0 .552-.45 1-1 1s-1-.448-1-1 .45-1 1-1 1 .448 1 1zm23-1c.55 0 1 .448 1 1s-.45 1-1 1-1-.448-1-1 .45-1 1-1z"/><path fill="#fff" fill-opacity=".2" d="M1060.27 221c.55 0 1 .448 1 1s-.45 1-1 1-1-.448-1-1 .45-1 1-1z"/><path fill="#fff" fill-opacity=".1" d="M1084.27 221c.55 0 1 .448 1 1s-.45 1-1 1-1-.448-1-1 .45-1 1-1zm25 1c0 .552-.45 1-1 1s-1-.448-1-1 .45-1 1-1 1 .448 1 1z"/><path fill="#fff" fill-opacity=".2" d="M1133.27 222c0 .552-.45 1-1 1s-1-.448-1-1 .45-1 1-1 1 .448 1 1z"/><path fill="#fff" fill-opacity=".3" d="M1157.27 222c0 .552-.45 1-1 1s-1-.448-1-1 .45-1 1-1 1 .448 1 1z"/><path fill="#fff" fill-opacity=".4" d="M1181.27 222c0 .552-.45 1-1 1s-1-.448-1-1 .45-1 1-1 1 .448 1 1z"/><path fill="#fff" fill-opacity=".8" d="M1205.27 222c0 .552-.45 1-1 1s-1-.448-1-1 .45-1 1-1 1 .448 1 1z"/><path fill="#fff" fill-opacity=".4" d="M1229.27 222c0 .552-.45 1-1 1s-1-.448-1-1 .45-1 1-1 1 .448 1 1z"/><path fill="#fff" fill-opacity=".3" d="M1252.27 221c.55 0 1 .448 1 1s-.45 1-1 1-1-.448-1-1 .45-1 1-1z"/><path fill="#fff" fill-opacity=".2" d="M1276.27 221c.55 0 1 .448 1 1s-.45 1-1 1-1-.448-1-1 .45-1 1-1z"/><path fill="#fff" fill-opacity=".1" d="M1300.27 221c.55 0 1 .448 1 1s-.45 1-1 1-1-.448-1-1 .45-1 1-1zm25 1c0 .552-.45 1-1 1s-1-.448-1-1 .45-1 1-1 1 .448 1 1z"/><path fill="#fff" fill-opacity=".2" d="M1349.27 222c0 .552-.45 1-1 1s-1-.448-1-1 .45-1 1-1 1 .448 1 1z"/><path fill="#fff" fill-opacity=".3" d="M1373.27 222c0 .552-.45 1-1 1s-1-.448-1-1 .45-1 1-1 1 .448 1 1z"/><path fill="#fff" fill-opacity=".4" d="M1397.27 222c0 .552-.45 1-1 1s-1-.448-1-1 .45-1 1-1 1 .448 1 1zm24 0c0 .552-.45 1-1 1s-1-.448-1-1 .45-1 1-1 1 .448 1 1zm24 0c0 .552-.45 1-1 1s-1-.448-1-1 .45-1 1-1 1 .448 1 1z"/><path fill="#fff" fill-opacity=".3" d="M1468.27 221c.55 0 1 .448 1 1s-.45 1-1 1-1-.448-1-1 .45-1 1-1z"/><path fill="#fff" fill-opacity=".2" d="M1492.27 221c.55 0 1 .448 1 1s-.45 1-1 1-1-.448-1-1 .45-1 1-1z"/><path fill="#fff" fill-opacity=".1" d="M1516.27 221c.55 0 1 .448 1 1s-.45 1-1 1-1-.448-1-1 .45-1 1-1zm25 1c0 .552-.45 1-1 1s-1-.448-1-1 .45-1 1-1 1 .448 1 1z"/><path fill="#fff" fill-opacity=".2" d="M1565.27 222c0 .552-.45 1-1 1s-1-.448-1-1 .45-1 1-1 1 .448 1 1z"/><path fill="#fff" fill-opacity=".3" d="M1589.27 222c0 .552-.45 1-1 1s-1-.448-1-1 .45-1 1-1 1 .448 1 1z"/><path fill="#fff" fill-opacity=".4" d="M1613.27 222c0 .552-.45 1-1 1s-1-.448-1-1 .45-1 1-1 1 .448 1 1zm24 0c0 .552-.45 1-1 1s-1-.448-1-1 .45-1 1-1 1 .448 1 1z"/><path fill="#fff" fill-opacity=".1" d="M4.273 197a1 1 0 1 1 0 2 1 1 0 0 1 0-2zm25 1a1 1 0 1 1-2 0 1 1 0 0 1 2 0z"/><path fill="#fff" fill-opacity=".2" d="M53.273 198a1 1 0 1 1-2 0 1 1 0 0 1 2 0z"/><path fill="#fff" fill-opacity=".3" d="M77.273 198a1 1 0 1 1-2 0 1 1 0 0 1 2 0zm24 0a1 1 0 1 1-2 0 1 1 0 0 1 2 0zm24 0a1 1 0 1 1-2 0 1 1 0 0 1 2 0zm24 0a1 1 0 1 1-2 0 1 1 0 0 1 2 0zm23-1a1 1 0 1 1 0 2 1 1 0 0 1 0-2z"/><path fill="#fff" fill-opacity=".2" d="M196.273 197a1 1 0 1 1 0 2 1 1 0 0 1 0-2z"/><path fill="#fff" fill-opacity=".8" d="M220.273 197a1 1 0 1 1 0 2 1 1 0 0 1 0-2z"/><path fill="#fff" fill-opacity=".1" d="M245.273 198a1 1 0 1 1-2 0 1 1 0 0 1 2 0z"/><path fill="#fff" fill-opacity=".2" d="M269.273 198a1 1 0 1 1-2 0 1 1 0 0 1 2 0zm24 0a1 1 0 1 1-2 0 1 1 0 0 1 2 0z"/><path fill="#fff" fill-opacity=".8" d="M317.273 198a1 1 0 1 1-2 0 1 1 0 0 1 2 0z"/><path fill="#fff" fill-opacity=".2" d="M341.273 198a1 1 0 1 1-2 0 1 1 0 0 1 2 0zm24 0a1 1 0 1 1-2 0 1 1 0 0 1 2 0zm23-1a1 1 0 1 1 0 2 1 1 0 0 1 0-2zm24 0a1 1 0 1 1 0 2 1 1 0 0 1 0-2z"/><path fill="#fff" fill-opacity=".1" d="M436.273 197a1 1 0 1 1 0 2 1 1 0 0 1 0-2zm25 1a1 1 0 1 1-2 0 1 1 0 0 1 2 0zm24 0a1 1 0 1 1-2 0 1 1 0 0 1 2 0zm24 0a1 1 0 1 1-2 0 1 1 0 0 1 2 0zm24 0a1 1 0 1 1-2 0 1 1 0 0 1 2 0zm24 0a1 1 0 1 1-2 0 1 1 0 0 1 2 0zm24 0a1 1 0 1 1-2 0 1 1 0 0 1 2 0zm23-1a1 1 0 1 1 0 2 1 1 0 0 1 0-2zm24 0a1 1 0 1 1 0 2 1 1 0 0 1 0-2zm24 0a1 1 0 1 1 0 2 1 1 0 0 1 0-2zm25 1a1 1 0 1 1-2 0 1 1 0 0 1 2 0zm24 0a1 1 0 1 1-2 0 1 1 0 0 1 2 0zm24 0a1 1 0 1 1-2 0 1 1 0 0 1 2 0zm24 0a1 1 0 1 1-2 0 1 1 0 0 1 2 0zm24 0a1 1 0 1 1-2 0 1 1 0 0 1 2 0zm24 0a1 1 0 1 1-2 0 1 1 0 0 1 2 0zm23-1a1 1 0 1 1 0 2 1 1 0 0 1 0-2zm24 0a1 1 0 1 1 0 2 1 1 0 0 1 0-2zm24 0a1 1 0 1 1 0 2 1 1 0 0 1 0-2zm25 1a1 1 0 1 1-2 0 1 1 0 0 1 2 0z"/><path fill="#fff" fill-opacity=".8" d="M917.273 198a1 1 0 1 1-2 0 1 1 0 0 1 2 0z"/><path fill="#fff" fill-opacity=".2" d="M941.273 198a1 1 0 1 1-2 0 1 1 0 0 1 2 0zm24 0a1 1 0 1 1-2 0 1 1 0 0 1 2 0zm24 0a1 1 0 1 1-2 0 1 1 0 0 1 2 0zm23.997 0c0 .552-.45 1-1 1s-1-.448-1-1 .45-1 1-1 1 .448 1 1zm23-1c.55 0 1 .448 1 1s-.45 1-1 1-1-.448-1-1 .45-1 1-1zm24 0c.55 0 1 .448 1 1s-.45 1-1 1-1-.448-1-1 .45-1 1-1z"/><path fill="#fff" fill-opacity=".1" d="M1084.27 197c.55 0 1 .448 1 1s-.45 1-1 1-1-.448-1-1 .45-1 1-1zm25 1c0 .552-.45 1-1 1s-1-.448-1-1 .45-1 1-1 1 .448 1 1z"/><path fill="#fff" fill-opacity=".2" d="M1133.27 198c0 .552-.45 1-1 1s-1-.448-1-1 .45-1 1-1 1 .448 1 1z"/><path fill="#fff" fill-opacity=".3" d="M1157.27 198c0 .552-.45 1-1 1s-1-.448-1-1 .45-1 1-1 1 .448 1 1zm24 0c0 .552-.45 1-1 1s-1-.448-1-1 .45-1 1-1 1 .448 1 1zm24 0c0 .552-.45 1-1 1s-1-.448-1-1 .45-1 1-1 1 .448 1 1zm24 0c0 .552-.45 1-1 1s-1-.448-1-1 .45-1 1-1 1 .448 1 1zm23-1c.55 0 1 .448 1 1s-.45 1-1 1-1-.448-1-1 .45-1 1-1z"/><path fill="#fff" fill-opacity=".2" d="M1276.27 197c.55 0 1 .448 1 1s-.45 1-1 1-1-.448-1-1 .45-1 1-1z"/><path fill="#fff" fill-opacity=".1" d="M1300.27 197c.55 0 1 .448 1 1s-.45 1-1 1-1-.448-1-1 .45-1 1-1zm25 1c0 .552-.45 1-1 1s-1-.448-1-1 .45-1 1-1 1 .448 1 1z"/><path fill="#fff" fill-opacity=".2" d="M1349.27 198c0 .552-.45 1-1 1s-1-.448-1-1 .45-1 1-1 1 .448 1 1z"/><path fill="#fff" fill-opacity=".3" d="M1373.27 198c0 .552-.45 1-1 1s-1-.448-1-1 .45-1 1-1 1 .448 1 1z"/><path fill="#fff" fill-opacity=".4" d="M1397.27 198c0 .552-.45 1-1 1s-1-.448-1-1 .45-1 1-1 1 .448 1 1z"/><path fill="#fff" fill-opacity=".8" d="M1421.27 198c0 .552-.45 1-1 1s-1-.448-1-1 .45-1 1-1 1 .448 1 1z"/><path fill="#fff" fill-opacity=".4" d="M1445.27 198c0 .552-.45 1-1 1s-1-.448-1-1 .45-1 1-1 1 .448 1 1z"/><path fill="#fff" fill-opacity=".3" d="M1468.27 197c.55 0 1 .448 1 1s-.45 1-1 1-1-.448-1-1 .45-1 1-1z"/><path fill="#fff" fill-opacity=".2" d="M1492.27 197c.55 0 1 .448 1 1s-.45 1-1 1-1-.448-1-1 .45-1 1-1z"/><path fill="#fff" fill-opacity=".1" d="M1516.27 197c.55 0 1 .448 1 1s-.45 1-1 1-1-.448-1-1 .45-1 1-1zm25 1c0 .552-.45 1-1 1s-1-.448-1-1 .45-1 1-1 1 .448 1 1z"/><path fill="#fff" fill-opacity=".2" d="M1565.27 198c0 .552-.45 1-1 1s-1-.448-1-1 .45-1 1-1 1 .448 1 1z"/><path fill="#fff" fill-opacity=".3" d="M1589.27 198c0 .552-.45 1-1 1s-1-.448-1-1 .45-1 1-1 1 .448 1 1z"/><path fill="#fff" fill-opacity=".4" d="M1613.27 198c0 .552-.45 1-1 1s-1-.448-1-1 .45-1 1-1 1 .448 1 1zm24 0c0 .552-.45 1-1 1s-1-.448-1-1 .45-1 1-1 1 .448 1 1z"/><path fill="#fff" fill-opacity=".1" d="M4.273 173a1 1 0 1 1 0 2 1 1 0 0 1 0-2zm25 1a1 1 0 1 1-2 0 1 1 0 0 1 2 0z"/><path fill="#fff" fill-opacity=".2" d="M53.273 174a1 1 0 1 1-2 0 1 1 0 0 1 2 0z"/><path fill="#fff" fill-opacity=".3" d="M77.273 174a1 1 0 1 1-2 0 1 1 0 0 1 2 0z"/><path fill="#fff" fill-opacity=".4" d="M101.273 174a1 1 0 1 1-2 0 1 1 0 0 1 2 0zm24 0a1 1 0 1 1-2 0 1 1 0 0 1 2 0zm24 0a1 1 0 1 1-2 0 1 1 0 0 1 2 0z"/><path fill="#fff" fill-opacity=".3" d="M172.273 173a1 1 0 1 1 0 2 1 1 0 0 1 0-2z"/><path fill="#fff" fill-opacity=".2" d="M196.273 173a1 1 0 1 1 0 2 1 1 0 0 1 0-2z"/><path fill="#fff" fill-opacity=".1" d="M220.273 173a1 1 0 1 1 0 2 1 1 0 0 1 0-2zm25 1a1 1 0 1 1-2 0 1 1 0 0 1 2 0z"/><path fill="#fff" fill-opacity=".2" d="M269.273 174a1 1 0 1 1-2 0 1 1 0 0 1 2 0z"/><path fill="#fff" fill-opacity=".3" d="M293.273 174a1 1 0 1 1-2 0 1 1 0 0 1 2 0zm24 0a1 1 0 1 1-2 0 1 1 0 0 1 2 0zm24 0a1 1 0 1 1-2 0 1 1 0 0 1 2 0zm24 0a1 1 0 1 1-2 0 1 1 0 0 1 2 0zm23-1a1 1 0 1 1 0 2 1 1 0 0 1 0-2z"/><path fill="#fff" fill-opacity=".2" d="M412.273 173a1 1 0 1 1 0 2 1 1 0 0 1 0-2z"/><path fill="#fff" fill-opacity=".8" d="M436.273 173a1 1 0 1 1 0 2 1 1 0 0 1 0-2z"/><path fill="#fff" fill-opacity=".1" d="M461.273 174a1 1 0 1 1-2 0 1 1 0 0 1 2 0z"/><path fill="#fff" fill-opacity=".2" d="M485.273 174a1 1 0 1 1-2 0 1 1 0 0 1 2 0zm24 0a1 1 0 1 1-2 0 1 1 0 0 1 2 0z"/><path fill="#fff" fill-opacity=".8" d="M533.273 174a1 1 0 1 1-2 0 1 1 0 0 1 2 0z"/><path fill="#fff" fill-opacity=".2" d="M557.273 174a1 1 0 1 1-2 0 1 1 0 0 1 2 0zm24 0a1 1 0 1 1-2 0 1 1 0 0 1 2 0zm23-1a1 1 0 1 1 0 2 1 1 0 0 1 0-2zm24 0a1 1 0 1 1 0 2 1 1 0 0 1 0-2z"/><path fill="#fff" fill-opacity=".1" d="M652.273 173a1 1 0 1 1 0 2 1 1 0 0 1 0-2zm25 1a1 1 0 1 1-2 0 1 1 0 0 1 2 0zm24 0a1 1 0 1 1-2 0 1 1 0 0 1 2 0zm24 0a1 1 0 1 1-2 0 1 1 0 0 1 2 0zm24 0a1 1 0 1 1-2 0 1 1 0 0 1 2 0zm24 0a1 1 0 1 1-2 0 1 1 0 0 1 2 0zm24 0a1 1 0 1 1-2 0 1 1 0 0 1 2 0zm23-1a1 1 0 1 1 0 2 1 1 0 0 1 0-2zm24 0a1 1 0 1 1 0 2 1 1 0 0 1 0-2zm24 0a1 1 0 1 1 0 2 1 1 0 0 1 0-2zm25 1a1 1 0 1 1-2 0 1 1 0 0 1 2 0zm24 0a1 1 0 1 1-2 0 1 1 0 0 1 2 0zm24 0a1 1 0 1 1-2 0 1 1 0 0 1 2 0zm24 0a1 1 0 1 1-2 0 1 1 0 0 1 2 0zm24 0a1 1 0 1 1-2 0 1 1 0 0 1 2 0zm23.997 0c0 .552-.45 1-1 1s-1-.448-1-1 .45-1 1-1 1 .448 1 1zm23-1c.55 0 1 .448 1 1s-.45 1-1 1-1-.448-1-1 .45-1 1-1zm24 0c.55 0 1 .448 1 1s-.45 1-1 1-1-.448-1-1 .45-1 1-1zm24 0c.55 0 1 .448 1 1s-.45 1-1 1-1-.448-1-1 .45-1 1-1zm25 1c0 .552-.45 1-1 1s-1-.448-1-1 .45-1 1-1 1 .448 1 1z"/><path fill="#fff" fill-opacity=".8" d="M1133.27 174c0 .552-.45 1-1 1s-1-.448-1-1 .45-1 1-1 1 .448 1 1z"/><path fill="#fff" fill-opacity=".2" d="M1157.27 174c0 .552-.45 1-1 1s-1-.448-1-1 .45-1 1-1 1 .448 1 1zm24 0c0 .552-.45 1-1 1s-1-.448-1-1 .45-1 1-1 1 .448 1 1zm24 0c0 .552-.45 1-1 1s-1-.448-1-1 .45-1 1-1 1 .448 1 1zm24 0c0 .552-.45 1-1 1s-1-.448-1-1 .45-1 1-1 1 .448 1 1zm23-1c.55 0 1 .448 1 1s-.45 1-1 1-1-.448-1-1 .45-1 1-1zm24 0c.55 0 1 .448 1 1s-.45 1-1 1-1-.448-1-1 .45-1 1-1z"/><path fill="#fff" fill-opacity=".1" d="M1300.27 173c.55 0 1 .448 1 1s-.45 1-1 1-1-.448-1-1 .45-1 1-1zm25 1c0 .552-.45 1-1 1s-1-.448-1-1 .45-1 1-1 1 .448 1 1z"/><path fill="#fff" fill-opacity=".2" d="M1349.27 174c0 .552-.45 1-1 1s-1-.448-1-1 .45-1 1-1 1 .448 1 1z"/><path fill="#fff" fill-opacity=".3" d="M1373.27 174c0 .552-.45 1-1 1s-1-.448-1-1 .45-1 1-1 1 .448 1 1zm24 0c0 .552-.45 1-1 1s-1-.448-1-1 .45-1 1-1 1 .448 1 1zm24 0c0 .552-.45 1-1 1s-1-.448-1-1 .45-1 1-1 1 .448 1 1zm24 0c0 .552-.45 1-1 1s-1-.448-1-1 .45-1 1-1 1 .448 1 1zm23-1c.55 0 1 .448 1 1s-.45 1-1 1-1-.448-1-1 .45-1 1-1z"/><path fill="#fff" fill-opacity=".2" d="M1492.27 173c.55 0 1 .448 1 1s-.45 1-1 1-1-.448-1-1 .45-1 1-1z"/><path fill="#fff" fill-opacity=".1" d="M1516.27 173c.55 0 1 .448 1 1s-.45 1-1 1-1-.448-1-1 .45-1 1-1zm25 1c0 .552-.45 1-1 1s-1-.448-1-1 .45-1 1-1 1 .448 1 1z"/><path fill="#fff" fill-opacity=".2" d="M1565.27 174c0 .552-.45 1-1 1s-1-.448-1-1 .45-1 1-1 1 .448 1 1z"/><path fill="#fff" fill-opacity=".3" d="M1589.27 174c0 .552-.45 1-1 1s-1-.448-1-1 .45-1 1-1 1 .448 1 1z"/><path fill="#fff" fill-opacity=".4" d="M1613.27 174c0 .552-.45 1-1 1s-1-.448-1-1 .45-1 1-1 1 .448 1 1z"/><path fill="#fff" fill-opacity=".8" d="M1637.27 174c0 .552-.45 1-1 1s-1-.448-1-1 .45-1 1-1 1 .448 1 1z"/><path fill="#fff" fill-opacity=".1" d="M4.273 149a1 1 0 1 1 0 2 1 1 0 0 1 0-2zm25 1a1 1 0 1 1-2 0 1 1 0 0 1 2 0z"/><path fill="#fff" fill-opacity=".2" d="M53.273 150a1 1 0 1 1-2 0 1 1 0 0 1 2 0z"/><path fill="#fff" fill-opacity=".3" d="M77.273 150a1 1 0 1 1-2 0 1 1 0 0 1 2 0z"/><path fill="#fff" fill-opacity=".4" d="M101.273 150a1 1 0 1 1-2 0 1 1 0 0 1 2 0zm24 0a1 1 0 1 1-2 0 1 1 0 0 1 2 0zm24 0a1 1 0 1 1-2 0 1 1 0 0 1 2 0z"/><path fill="#fff" fill-opacity=".2" d="M173.273 150a1 1 0 1 1-2 0 1 1 0 0 1 2 0z"/><path fill="#fff" fill-opacity=".4" d="M197.273 150a1 1 0 1 1-2 0 1 1 0 0 1 2 0zm24 0a1 1 0 1 1-2 0 1 1 0 0 1 2 0z"/><path fill="#fff" fill-opacity=".2" d="M245.273 150a1 1 0 1 1-2 0 1 1 0 0 1 2 0z"/><path fill="#fff" fill-opacity=".4" d="M269.273 150a1 1 0 1 1-2 0 1 1 0 0 1 2 0zm24 0a1 1 0 1 1-2 0 1 1 0 0 1 2 0z"/><path fill="#fff" fill-opacity=".3" d="M316.273 149a1 1 0 1 1 0 2 1 1 0 0 1 0-2z"/><path fill="#fff" fill-opacity=".2" d="M340.273 149a1 1 0 1 1 0 2 1 1 0 0 1 0-2z"/><path fill="#fff" fill-opacity=".1" d="M364.273 149a1 1 0 1 1 0 2 1 1 0 0 1 0-2zm25 1a1 1 0 1 1-2 0 1 1 0 0 1 2 0z"/><path fill="#fff" fill-opacity=".2" d="M413.273 150a1 1 0 1 1-2 0 1 1 0 0 1 2 0z"/><path fill="#fff" fill-opacity=".3" d="M437.273 150a1 1 0 1 1-2 0 1 1 0 0 1 2 0z"/><path fill="#fff" fill-opacity=".4" d="M461.273 150a1 1 0 1 1-2 0 1 1 0 0 1 2 0zm24 0a1 1 0 1 1-2 0 1 1 0 0 1 2 0zm24 0a1 1 0 1 1-2 0 1 1 0 0 1 2 0z"/><path fill="#fff" fill-opacity=".3" d="M532.273 149a1 1 0 1 1 0 2 1 1 0 0 1 0-2z"/><path fill="#fff" fill-opacity=".2" d="M556.273 149a1 1 0 1 1 0 2 1 1 0 0 1 0-2z"/><path fill="#fff" fill-opacity=".1" d="M580.273 149a1 1 0 1 1 0 2 1 1 0 0 1 0-2zm25 1a1 1 0 1 1-2 0 1 1 0 0 1 2 0z"/><path fill="#fff" fill-opacity=".2" d="M629.273 150a1 1 0 1 1-2 0 1 1 0 0 1 2 0z"/><path fill="#fff" fill-opacity=".3" d="M653.273 150a1 1 0 1 1-2 0 1 1 0 0 1 2 0zm24 0a1 1 0 1 1-2 0 1 1 0 0 1 2 0zm24 0a1 1 0 1 1-2 0 1 1 0 0 1 2 0zm24 0a1 1 0 1 1-2 0 1 1 0 0 1 2 0zm23-1a1 1 0 1 1 0 2 1 1 0 0 1 0-2z"/><path fill="#fff" fill-opacity=".2" d="M772.273 149a1 1 0 1 1 0 2 1 1 0 0 1 0-2z"/><path fill="#fff" fill-opacity=".8" d="M796.273 149a1 1 0 1 1 0 2 1 1 0 0 1 0-2z"/><path fill="#fff" fill-opacity=".1" d="M821.273 150a1 1 0 1 1-2 0 1 1 0 0 1 2 0z"/><path fill="#fff" fill-opacity=".2" d="M845.273 150a1 1 0 1 1-2 0 1 1 0 0 1 2 0zm24 0a1 1 0 1 1-2 0 1 1 0 0 1 2 0z"/><path fill="#fff" fill-opacity=".8" d="M893.273 150a1 1 0 1 1-2 0 1 1 0 0 1 2 0z"/><path fill="#fff" fill-opacity=".2" d="M917.273 150a1 1 0 1 1-2 0 1 1 0 0 1 2 0zm24 0a1 1 0 1 1-2 0 1 1 0 0 1 2 0zm23-1a1 1 0 1 1 0 2 1 1 0 0 1 0-2zm24 0a1 1 0 1 1 0 2 1 1 0 0 1 0-2z"/><path fill="#fff" fill-opacity=".1" d="M1012.27 149c.55 0 1 .448 1 1s-.45 1-1 1-1-.448-1-1 .45-1 1-1zm25 1c0 .552-.45 1-1 1s-1-.448-1-1 .45-1 1-1 1 .448 1 1zm24 0c0 .552-.45 1-1 1s-1-.448-1-1 .45-1 1-1 1 .448 1 1zm24 0c0 .552-.45 1-1 1s-1-.448-1-1 .45-1 1-1 1 .448 1 1zm24 0c0 .552-.45 1-1 1s-1-.448-1-1 .45-1 1-1 1 .448 1 1zm24 0c0 .552-.45 1-1 1s-1-.448-1-1 .45-1 1-1 1 .448 1 1zm24 0c0 .552-.45 1-1 1s-1-.448-1-1 .45-1 1-1 1 .448 1 1zm23-1c.55 0 1 .448 1 1s-.45 1-1 1-1-.448-1-1 .45-1 1-1zm24 0c.55 0 1 .448 1 1s-.45 1-1 1-1-.448-1-1 .45-1 1-1zm25 1c0 .552-.45 1-1 1s-1-.448-1-1 .45-1 1-1 1 .448 1 1z"/><path fill="#fff" fill-opacity=".2" d="M1253.27 150c0 .552-.45 1-1 1s-1-.448-1-1 .45-1 1-1 1 .448 1 1z"/><path fill="#fff" fill-opacity=".3" d="M1277.27 150c0 .552-.45 1-1 1s-1-.448-1-1 .45-1 1-1 1 .448 1 1zm24 0c0 .552-.45 1-1 1s-1-.448-1-1 .45-1 1-1 1 .448 1 1zm24 0c0 .552-.45 1-1 1s-1-.448-1-1 .45-1 1-1 1 .448 1 1zm24 0c0 .552-.45 1-1 1s-1-.448-1-1 .45-1 1-1 1 .448 1 1zm23-1c.55 0 1 .448 1 1s-.45 1-1 1-1-.448-1-1 .45-1 1-1z"/><path fill="#fff" fill-opacity=".2" d="M1396.27 149c.55 0 1 .448 1 1s-.45 1-1 1-1-.448-1-1 .45-1 1-1z"/><path fill="#fff" fill-opacity=".1" d="M1420.27 149c.55 0 1 .448 1 1s-.45 1-1 1-1-.448-1-1 .45-1 1-1zm25 1c0 .552-.45 1-1 1s-1-.448-1-1 .45-1 1-1 1 .448 1 1z"/><path fill="#fff" fill-opacity=".2" d="M1469.27 150c0 .552-.45 1-1 1s-1-.448-1-1 .45-1 1-1 1 .448 1 1z"/><path fill="#fff" fill-opacity=".3" d="M1493.27 150c0 .552-.45 1-1 1s-1-.448-1-1 .45-1 1-1 1 .448 1 1z"/><path fill="#fff" fill-opacity=".4" d="M1517.27 150c0 .552-.45 1-1 1s-1-.448-1-1 .45-1 1-1 1 .448 1 1z"/><path fill="#fff" fill-opacity=".8" d="M1541.27 150c0 .552-.45 1-1 1s-1-.448-1-1 .45-1 1-1 1 .448 1 1z"/><path fill="#fff" fill-opacity=".4" d="M1565.27 150c0 .552-.45 1-1 1s-1-.448-1-1 .45-1 1-1 1 .448 1 1z"/><path fill="#fff" fill-opacity=".3" d="M1588.27 149c.55 0 1 .448 1 1s-.45 1-1 1-1-.448-1-1 .45-1 1-1z"/><path fill="#fff" fill-opacity=".2" d="M1612.27 149c.55 0 1 .448 1 1s-.45 1-1 1-1-.448-1-1 .45-1 1-1z"/><path fill="#fff" fill-opacity=".1" d="M1636.27 149c.55 0 1 .448 1 1s-.45 1-1 1-1-.448-1-1 .45-1 1-1z"/><path fill="#fff" fill-opacity=".4" d="M5.273 126a1 1 0 1 1-2 0 1 1 0 0 1 2 0zm24 0a1 1 0 1 1-2 0 1 1 0 0 1 2 0zm24 0a1 1 0 1 1-2 0 1 1 0 0 1 2 0z"/><path fill="#fff" fill-opacity=".3" d="M77.273 126a1 1 0 1 1-2 0 1 1 0 0 1 2 0z"/><path fill="#fff" fill-opacity=".8" d="M101.273 126a1 1 0 1 1-2 0 1 1 0 0 1 2 0zm24 0a1 1 0 1 1-2 0 1 1 0 0 1 2 0z"/><path fill="#fff" fill-opacity=".3" d="M149.273 126a1 1 0 1 1-2 0 1 1 0 0 1 2 0zm23-1a1 1 0 1 1 0 2 1 1 0 0 1 0-2z"/><path fill="#fff" fill-opacity=".2" d="M196.273 125a1 1 0 1 1 0 2 1 1 0 0 1 0-2z"/><path fill="#fff" fill-opacity=".8" d="M220.273 125a1 1 0 1 1 0 2 1 1 0 0 1 0-2z"/><path fill="#fff" fill-opacity=".1" d="M245.273 126a1 1 0 1 1-2 0 1 1 0 0 1 2 0z"/><path fill="#fff" fill-opacity=".2" d="M269.273 126a1 1 0 1 1-2 0 1 1 0 0 1 2 0zm24 0a1 1 0 1 1-2 0 1 1 0 0 1 2 0z"/><path fill="#fff" fill-opacity=".8" d="M317.273 126a1 1 0 1 1-2 0 1 1 0 0 1 2 0z"/><path fill="#fff" fill-opacity=".2" d="M341.273 126a1 1 0 1 1-2 0 1 1 0 0 1 2 0zm24 0a1 1 0 1 1-2 0 1 1 0 0 1 2 0zm23-1a1 1 0 1 1 0 2 1 1 0 0 1 0-2zm24 0a1 1 0 1 1 0 2 1 1 0 0 1 0-2z"/><path fill="#fff" fill-opacity=".1" d="M436.273 125a1 1 0 1 1 0 2 1 1 0 0 1 0-2zm25 1a1 1 0 1 1-2 0 1 1 0 0 1 2 0zm24 0a1 1 0 1 1-2 0 1 1 0 0 1 2 0zm24 0a1 1 0 1 1-2 0 1 1 0 0 1 2 0zm24 0a1 1 0 1 1-2 0 1 1 0 0 1 2 0zm24 0a1 1 0 1 1-2 0 1 1 0 0 1 2 0zm24 0a1 1 0 1 1-2 0 1 1 0 0 1 2 0zm23-1a1 1 0 1 1 0 2 1 1 0 0 1 0-2zm24 0a1 1 0 1 1 0 2 1 1 0 0 1 0-2zm25 1a1 1 0 1 1-2 0 1 1 0 0 1 2 0z"/><path fill="#fff" fill-opacity=".2" d="M677.273 126a1 1 0 1 1-2 0 1 1 0 0 1 2 0z"/><path fill="#fff" fill-opacity=".3" d="M701.273 126a1 1 0 1 1-2 0 1 1 0 0 1 2 0zm24 0a1 1 0 1 1-2 0 1 1 0 0 1 2 0zm24 0a1 1 0 1 1-2 0 1 1 0 0 1 2 0zm24 0a1 1 0 1 1-2 0 1 1 0 0 1 2 0zm23-1a1 1 0 1 1 0 2 1 1 0 0 1 0-2z"/><path fill="#fff" fill-opacity=".2" d="M820.273 125a1 1 0 1 1 0 2 1 1 0 0 1 0-2z"/><path fill="#fff" fill-opacity=".1" d="M844.273 125a1 1 0 1 1 0 2 1 1 0 0 1 0-2zm25 1a1 1 0 1 1-2 0 1 1 0 0 1 2 0z"/><path fill="#fff" fill-opacity=".2" d="M893.273 126a1 1 0 1 1-2 0 1 1 0 0 1 2 0z"/><path fill="#fff" fill-opacity=".3" d="M917.273 126a1 1 0 1 1-2 0 1 1 0 0 1 2 0z"/><path fill="#fff" fill-opacity=".4" d="M941.273 126a1 1 0 1 1-2 0 1 1 0 0 1 2 0z"/><path fill="#fff" fill-opacity=".8" d="M965.273 126a1 1 0 1 1-2 0 1 1 0 0 1 2 0z"/><path fill="#fff" fill-opacity=".4" d="M989.273 126a1 1 0 1 1-2 0 1 1 0 0 1 2 0z"/><path fill="#fff" fill-opacity=".3" d="M1012.27 125c.55 0 1 .448 1 1s-.45 1-1 1-1-.448-1-1 .45-1 1-1z"/><path fill="#fff" fill-opacity=".2" d="M1036.27 125c.55 0 1 .448 1 1s-.45 1-1 1-1-.448-1-1 .45-1 1-1z"/><path fill="#fff" fill-opacity=".1" d="M1060.27 125c.55 0 1 .448 1 1s-.45 1-1 1-1-.448-1-1 .45-1 1-1zm25 1c0 .552-.45 1-1 1s-1-.448-1-1 .45-1 1-1 1 .448 1 1z"/><path fill="#fff" fill-opacity=".2" d="M1109.27 126c0 .552-.45 1-1 1s-1-.448-1-1 .45-1 1-1 1 .448 1 1z"/><path fill="#fff" fill-opacity=".3" d="M1133.27 126c0 .552-.45 1-1 1s-1-.448-1-1 .45-1 1-1 1 .448 1 1z"/><path fill="#fff" fill-opacity=".4" d="M1157.27 126c0 .552-.45 1-1 1s-1-.448-1-1 .45-1 1-1 1 .448 1 1zm24 0c0 .552-.45 1-1 1s-1-.448-1-1 .45-1 1-1 1 .448 1 1zm24 0c0 .552-.45 1-1 1s-1-.448-1-1 .45-1 1-1 1 .448 1 1z"/><path fill="#fff" fill-opacity=".3" d="M1229.27 126c0 .552-.45 1-1 1s-1-.448-1-1 .45-1 1-1 1 .448 1 1zm24 0c0 .552-.45 1-1 1s-1-.448-1-1 .45-1 1-1 1 .448 1 1zm24 0c0 .552-.45 1-1 1s-1-.448-1-1 .45-1 1-1 1 .448 1 1zm24 0c0 .552-.45 1-1 1s-1-.448-1-1 .45-1 1-1 1 .448 1 1zm23-1c.55 0 1 .448 1 1s-.45 1-1 1-1-.448-1-1 .45-1 1-1z"/><path fill="#fff" fill-opacity=".2" d="M1348.27 125c.55 0 1 .448 1 1s-.45 1-1 1-1-.448-1-1 .45-1 1-1z"/><path fill="#fff" fill-opacity=".8" d="M1372.27 125c.55 0 1 .448 1 1s-.45 1-1 1-1-.448-1-1 .45-1 1-1z"/><path fill="#fff" fill-opacity=".1" d="M1397.27 126c0 .552-.45 1-1 1s-1-.448-1-1 .45-1 1-1 1 .448 1 1z"/><path fill="#fff" fill-opacity=".2" d="M1421.27 126c0 .552-.45 1-1 1s-1-.448-1-1 .45-1 1-1 1 .448 1 1zm24 0c0 .552-.45 1-1 1s-1-.448-1-1 .45-1 1-1 1 .448 1 1z"/><path fill="#fff" fill-opacity=".8" d="M1469.27 126c0 .552-.45 1-1 1s-1-.448-1-1 .45-1 1-1 1 .448 1 1z"/><path fill="#fff" fill-opacity=".2" d="M1493.27 126c0 .552-.45 1-1 1s-1-.448-1-1 .45-1 1-1 1 .448 1 1zm24 0c0 .552-.45 1-1 1s-1-.448-1-1 .45-1 1-1 1 .448 1 1zm23-1c.55 0 1 .448 1 1s-.45 1-1 1-1-.448-1-1 .45-1 1-1zm24 0c.55 0 1 .448 1 1s-.45 1-1 1-1-.448-1-1 .45-1 1-1z"/><path fill="#fff" fill-opacity=".1" d="M1588.27 125c.55 0 1 .448 1 1s-.45 1-1 1-1-.448-1-1 .45-1 1-1zm25 1c0 .552-.45 1-1 1s-1-.448-1-1 .45-1 1-1 1 .448 1 1zm24 0c0 .552-.45 1-1 1s-1-.448-1-1 .45-1 1-1 1 .448 1 1zM5.273 102a1 1 0 1 1-2 0 1 1 0 0 1 2 0zm23-1a1 1 0 1 1 0 2 1 1 0 0 1 0-2zm24 0a1 1 0 1 1 0 2 1 1 0 0 1 0-2zm25 1a1 1 0 1 1-2 0 1 1 0 0 1 2 0z"/><path fill="#fff" fill-opacity=".2" d="M101.273 102a1 1 0 1 1-2 0 1 1 0 0 1 2 0z"/><path fill="#fff" fill-opacity=".3" d="M125.273 102a1 1 0 1 1-2 0 1 1 0 0 1 2 0zm24 0a1 1 0 1 1-2 0 1 1 0 0 1 2 0z"/><path fill="#fff" fill-opacity=".2" d="M172.273 101a1 1 0 1 1 0 2 1 1 0 0 1 0-2z"/><path fill="#fff" fill-opacity=".1" d="M196.273 101a1 1 0 1 1 0 2 1 1 0 0 1 0-2zm25 1a1 1 0 1 1-2 0 1 1 0 0 1 2 0z"/><path fill="#fff" fill-opacity=".2" d="M245.273 102a1 1 0 1 1-2 0 1 1 0 0 1 2 0z"/><path fill="#fff" fill-opacity=".3" d="M269.273 102a1 1 0 1 1-2 0 1 1 0 0 1 2 0z"/><path fill="#fff" fill-opacity=".8" d="M293.273 102a1 1 0 1 1-2 0 1 1 0 0 1 2 0z"/><path fill="#fff" fill-opacity=".4" d="M317.273 102a1 1 0 1 1-2 0 1 1 0 0 1 2 0zm24 0a1 1 0 1 1-2 0 1 1 0 0 1 2 0z"/><path fill="#fff" fill-opacity=".2" d="M365.273 102a1 1 0 1 1-2 0 1 1 0 0 1 2 0z"/><path fill="#fff" fill-opacity=".8" d="M389.273 102a1 1 0 1 1-2 0 1 1 0 0 1 2 0zm24 0a1 1 0 1 1-2 0 1 1 0 0 1 2 0zm24 0a1 1 0 1 1-2 0 1 1 0 0 1 2 0zm23-1a1 1 0 1 1 0 2 1 1 0 0 1 0-2z"/><path fill="#fff" fill-opacity=".2" d="M484.273 101a1 1 0 1 1 0 2 1 1 0 0 1 0-2z"/><path fill="#fff" fill-opacity=".1" d="M508.273 101a1 1 0 1 1 0 2 1 1 0 0 1 0-2zm25 1a1 1 0 1 1-2 0 1 1 0 0 1 2 0z"/><path fill="#fff" fill-opacity=".3" d="M557.273 102a1 1 0 1 1-2 0 1 1 0 0 1 2 0zm24 0a1 1 0 1 1-2 0 1 1 0 0 1 2 0zm23-1a1 1 0 1 1 0 2 1 1 0 0 1 0-2z"/><path fill="#fff" fill-opacity=".2" d="M628.273 101a1 1 0 1 1 0 2 1 1 0 0 1 0-2z"/><path fill="#fff" fill-opacity=".8" d="M652.273 101a1 1 0 1 1 0 2 1 1 0 0 1 0-2z"/><path fill="#fff" fill-opacity=".1" d="M677.273 102a1 1 0 1 1-2 0 1 1 0 0 1 2 0z"/><path fill="#fff" fill-opacity=".2" d="M701.273 102a1 1 0 1 1-2 0 1 1 0 0 1 2 0zm24 0a1 1 0 1 1-2 0 1 1 0 0 1 2 0z"/><path fill="#fff" fill-opacity=".3" d="M748.273 101a1 1 0 1 1 0 2 1 1 0 0 1 0-2z"/><path fill="#fff" fill-opacity=".2" d="M772.273 101a1 1 0 1 1 0 2 1 1 0 0 1 0-2z"/><path fill="#fff" fill-opacity=".1" d="M796.273 101a1 1 0 1 1 0 2 1 1 0 0 1 0-2zm25 1a1 1 0 1 1-2 0 1 1 0 0 1 2 0z"/><path fill="#fff" fill-opacity=".2" d="M845.273 102a1 1 0 1 1-2 0 1 1 0 0 1 2 0z"/><path fill="#fff" fill-opacity=".3" d="M869.273 102a1 1 0 1 1-2 0 1 1 0 0 1 2 0z"/><path fill="#fff" fill-opacity=".4" d="M893.273 102a1 1 0 1 1-2 0 1 1 0 0 1 2 0z"/><path fill="#fff" fill-opacity=".8" d="M917.273 102a1 1 0 1 1-2 0 1 1 0 0 1 2 0z"/><path fill="#fff" fill-opacity=".1" d="M940.273 101a1 1 0 1 1 0 2 1 1 0 0 1 0-2zm25 1a1 1 0 1 1-2 0 1 1 0 0 1 2 0zm24 0a1 1 0 1 1-2 0 1 1 0 0 1 2 0zm23.997 0c0 .552-.45 1-1 1s-1-.448-1-1 .45-1 1-1 1 .448 1 1zm24 0c0 .552-.45 1-1 1s-1-.448-1-1 .45-1 1-1 1 .448 1 1zm24 0c0 .552-.45 1-1 1s-1-.448-1-1 .45-1 1-1 1 .448 1 1zm24 0c0 .552-.45 1-1 1s-1-.448-1-1 .45-1 1-1 1 .448 1 1zm23-1c.55 0 1 .448 1 1s-.45 1-1 1-1-.448-1-1 .45-1 1-1z"/><path fill="#fff" fill-opacity=".2" d="M1133.27 102c0 .552-.45 1-1 1s-1-.448-1-1 .45-1 1-1 1 .448 1 1z"/><path fill="#fff" fill-opacity=".3" d="M1157.27 102c0 .552-.45 1-1 1s-1-.448-1-1 .45-1 1-1 1 .448 1 1z"/><path fill="#fff" fill-opacity=".4" d="M1181.27 102c0 .552-.45 1-1 1s-1-.448-1-1 .45-1 1-1 1 .448 1 1zm24 0c0 .552-.45 1-1 1s-1-.448-1-1 .45-1 1-1 1 .448 1 1zm24 0c0 .552-.45 1-1 1s-1-.448-1-1 .45-1 1-1 1 .448 1 1z"/><path fill="#fff" fill-opacity=".2" d="M1253.27 102c0 .552-.45 1-1 1s-1-.448-1-1 .45-1 1-1 1 .448 1 1z"/><path fill="#fff" fill-opacity=".4" d="M1277.27 102c0 .552-.45 1-1 1s-1-.448-1-1 .45-1 1-1 1 .448 1 1zm24 0c0 .552-.45 1-1 1s-1-.448-1-1 .45-1 1-1 1 .448 1 1z"/><path fill="#fff" fill-opacity=".1" d="M1324.27 101c.55 0 1 .448 1 1s-.45 1-1 1-1-.448-1-1 .45-1 1-1zm24 0c.55 0 1 .448 1 1s-.45 1-1 1-1-.448-1-1 .45-1 1-1zm25 1c0 .552-.45 1-1 1s-1-.448-1-1 .45-1 1-1 1 .448 1 1z"/><path fill="#fff" fill-opacity=".2" d="M1397.27 102c0 .552-.45 1-1 1s-1-.448-1-1 .45-1 1-1 1 .448 1 1z"/><path fill="#fff" fill-opacity=".3" d="M1421.27 102c0 .552-.45 1-1 1s-1-.448-1-1 .45-1 1-1 1 .448 1 1zm24 0c0 .552-.45 1-1 1s-1-.448-1-1 .45-1 1-1 1 .448 1 1zm24 0c0 .552-.45 1-1 1s-1-.448-1-1 .45-1 1-1 1 .448 1 1zm24 0c0 .552-.45 1-1 1s-1-.448-1-1 .45-1 1-1 1 .448 1 1z"/><path fill="#fff" fill-opacity=".1" d="M1517.27 102c0 .552-.45 1-1 1s-1-.448-1-1 .45-1 1-1 1 .448 1 1zm23-1c.55 0 1 .448 1 1s-.45 1-1 1-1-.448-1-1 .45-1 1-1zm24 0c.55 0 1 .448 1 1s-.45 1-1 1-1-.448-1-1 .45-1 1-1zm25 1c0 .552-.45 1-1 1s-1-.448-1-1 .45-1 1-1 1 .448 1 1z"/><path fill="#fff" fill-opacity=".2" d="M1613.27 102c0 .552-.45 1-1 1s-1-.448-1-1 .45-1 1-1 1 .448 1 1z"/><path fill="#fff" fill-opacity=".3" d="M1637.27 102c0 .552-.45 1-1 1s-1-.448-1-1 .45-1 1-1 1 .448 1 1z"/><path fill="#fff" fill-opacity=".1" d="M5.273 78a1 1 0 1 1-2 0 1 1 0 0 1 2 0zm23-1a1 1 0 1 1 0 2 1 1 0 0 1 0-2zm24 0a1 1 0 1 1 0 2 1 1 0 0 1 0-2zm25 1a1 1 0 1 1-2 0 1 1 0 0 1 2 0z"/><path fill="#fff" fill-opacity=".2" d="M101.273 78a1 1 0 1 1-2 0 1 1 0 0 1 2 0z"/><path fill="#fff" fill-opacity=".3" d="M125.273 78a1 1 0 1 1-2 0 1 1 0 0 1 2 0zm24 0a1 1 0 1 1-2 0 1 1 0 0 1 2 0z"/><path fill="#fff" fill-opacity=".8" d="M172.273 77a1 1 0 1 1 0 2 1 1 0 0 1 0-2z"/><path fill="#fff" fill-opacity=".1" d="M196.273 77a1 1 0 1 1 0 2 1 1 0 0 1 0-2zm25 1a1 1 0 1 1-2 0 1 1 0 0 1 2 0z"/><path fill="#fff" fill-opacity=".2" d="M245.273 78a1 1 0 1 1-2 0 1 1 0 0 1 2 0z"/><path fill="#fff" fill-opacity=".3" d="M269.273 78a1 1 0 1 1-2 0 1 1 0 0 1 2 0z"/><path fill="#fff" fill-opacity=".8" d="M293.273 78a1 1 0 1 1-2 0 1 1 0 0 1 2 0z"/><path fill="#fff" fill-opacity=".4" d="M317.273 78a1 1 0 1 1-2 0 1 1 0 0 1 2 0zm24 0a1 1 0 1 1-2 0 1 1 0 0 1 2 0z"/><path fill="#fff" fill-opacity=".2" d="M365.273 78a1 1 0 1 1-2 0 1 1 0 0 1 2 0z"/><path fill="#fff" fill-opacity=".8" d="M389.273 78a1 1 0 1 1-2 0 1 1 0 0 1 2 0zm24 0a1 1 0 1 1-2 0 1 1 0 0 1 2 0zm24 0a1 1 0 1 1-2 0 1 1 0 0 1 2 0zm23-1a1 1 0 1 1 0 2 1 1 0 0 1 0-2z"/><path fill="#fff" fill-opacity=".2" d="M484.273 77a1 1 0 1 1 0 2 1 1 0 0 1 0-2z"/><path fill="#fff" fill-opacity=".1" d="M508.273 77a1 1 0 1 1 0 2 1 1 0 0 1 0-2zm25 1a1 1 0 1 1-2 0 1 1 0 0 1 2 0z"/><path fill="#fff" fill-opacity=".3" d="M557.273 78a1 1 0 1 1-2 0 1 1 0 0 1 2 0zm24 0a1 1 0 1 1-2 0 1 1 0 0 1 2 0zm23-1a1 1 0 1 1 0 2 1 1 0 0 1 0-2z"/><path fill="#fff" fill-opacity=".2" d="M628.273 77a1 1 0 1 1 0 2 1 1 0 0 1 0-2z"/><path fill="#fff" fill-opacity=".8" d="M652.273 77a1 1 0 1 1 0 2 1 1 0 0 1 0-2z"/><path fill="#fff" fill-opacity=".1" d="M677.273 78a1 1 0 1 1-2 0 1 1 0 0 1 2 0z"/><path fill="#fff" fill-opacity=".2" d="M701.273 78a1 1 0 1 1-2 0 1 1 0 0 1 2 0zm24 0a1 1 0 1 1-2 0 1 1 0 0 1 2 0z"/><path fill="#fff" fill-opacity=".3" d="M748.273 77a1 1 0 1 1 0 2 1 1 0 0 1 0-2z"/><path fill="#fff" fill-opacity=".2" d="M772.273 77a1 1 0 1 1 0 2 1 1 0 0 1 0-2z"/><path fill="#fff" fill-opacity=".1" d="M796.273 77a1 1 0 1 1 0 2 1 1 0 0 1 0-2zm25 1a1 1 0 1 1-2 0 1 1 0 0 1 2 0z"/><path fill="#fff" fill-opacity=".2" d="M845.273 78a1 1 0 1 1-2 0 1 1 0 0 1 2 0z"/><path fill="#fff" fill-opacity=".3" d="M869.273 78a1 1 0 1 1-2 0 1 1 0 0 1 2 0z"/><path fill="#fff" fill-opacity=".4" d="M893.273 78a1 1 0 1 1-2 0 1 1 0 0 1 2 0z"/><path fill="#fff" fill-opacity=".8" d="M917.273 78a1 1 0 1 1-2 0 1 1 0 0 1 2 0z"/><path fill="#fff" fill-opacity=".1" d="M940.273 77a1 1 0 1 1 0 2 1 1 0 0 1 0-2zm25 1a1 1 0 1 1-2 0 1 1 0 0 1 2 0zm24 0a1 1 0 1 1-2 0 1 1 0 0 1 2 0zm23.997 0c0 .552-.45 1-1 1s-1-.448-1-1 .45-1 1-1 1 .448 1 1zm24 0c0 .552-.45 1-1 1s-1-.448-1-1 .45-1 1-1 1 .448 1 1zm24 0c0 .552-.45 1-1 1s-1-.448-1-1 .45-1 1-1 1 .448 1 1zm24 0c0 .552-.45 1-1 1s-1-.448-1-1 .45-1 1-1 1 .448 1 1zm23-1c.55 0 1 .448 1 1s-.45 1-1 1-1-.448-1-1 .45-1 1-1z"/><path fill="#fff" fill-opacity=".2" d="M1133.27 78c0 .552-.45 1-1 1s-1-.448-1-1 .45-1 1-1 1 .448 1 1z"/><path fill="#fff" fill-opacity=".3" d="M1157.27 78c0 .552-.45 1-1 1s-1-.448-1-1 .45-1 1-1 1 .448 1 1z"/><path fill="#fff" fill-opacity=".4" d="M1181.27 78c0 .552-.45 1-1 1s-1-.448-1-1 .45-1 1-1 1 .448 1 1zm24 0c0 .552-.45 1-1 1s-1-.448-1-1 .45-1 1-1 1 .448 1 1zm24 0c0 .552-.45 1-1 1s-1-.448-1-1 .45-1 1-1 1 .448 1 1z"/><path fill="#fff" fill-opacity=".2" d="M1253.27 78c0 .552-.45 1-1 1s-1-.448-1-1 .45-1 1-1 1 .448 1 1z"/><path fill="#fff" fill-opacity=".4" d="M1277.27 78c0 .552-.45 1-1 1s-1-.448-1-1 .45-1 1-1 1 .448 1 1zm24 0c0 .552-.45 1-1 1s-1-.448-1-1 .45-1 1-1 1 .448 1 1z"/><path fill="#fff" fill-opacity=".1" d="M1324.27 77c.55 0 1 .448 1 1s-.45 1-1 1-1-.448-1-1 .45-1 1-1zm24 0c.55 0 1 .448 1 1s-.45 1-1 1-1-.448-1-1 .45-1 1-1zm25 1c0 .552-.45 1-1 1s-1-.448-1-1 .45-1 1-1 1 .448 1 1z"/><path fill="#fff" fill-opacity=".2" d="M1397.27 78c0 .552-.45 1-1 1s-1-.448-1-1 .45-1 1-1 1 .448 1 1z"/><path fill="#fff" fill-opacity=".3" d="M1421.27 78c0 .552-.45 1-1 1s-1-.448-1-1 .45-1 1-1 1 .448 1 1zm24 0c0 .552-.45 1-1 1s-1-.448-1-1 .45-1 1-1 1 .448 1 1zm24 0c0 .552-.45 1-1 1s-1-.448-1-1 .45-1 1-1 1 .448 1 1zm24 0c0 .552-.45 1-1 1s-1-.448-1-1 .45-1 1-1 1 .448 1 1z"/><path fill="#fff" fill-opacity=".1" d="M1517.27 78c0 .552-.45 1-1 1s-1-.448-1-1 .45-1 1-1 1 .448 1 1zm23-1c.55 0 1 .448 1 1s-.45 1-1 1-1-.448-1-1 .45-1 1-1zm24 0c.55 0 1 .448 1 1s-.45 1-1 1-1-.448-1-1 .45-1 1-1zm25 1c0 .552-.45 1-1 1s-1-.448-1-1 .45-1 1-1 1 .448 1 1z"/><path fill="#fff" fill-opacity=".2" d="M1613.27 78c0 .552-.45 1-1 1s-1-.448-1-1 .45-1 1-1 1 .448 1 1z"/><path fill="#fff" fill-opacity=".3" d="M1637.27 78c0 .552-.45 1-1 1s-1-.448-1-1 .45-1 1-1 1 .448 1 1zM197.273 54a1 1 0 1 1-2 0 1 1 0 0 1 2 0z"/><path fill="#fff" fill-opacity=".1" d="M221.273 54a1 1 0 1 1-2 0 1 1 0 0 1 2 0zm24 0a1 1 0 1 1-2 0 1 1 0 0 1 2 0zm23-1a1 1 0 1 1 0 2 1 1 0 0 1 0-2zm24 0a1 1 0 1 1 0 2 1 1 0 0 1 0-2zm25 1a1 1 0 1 1-2 0 1 1 0 0 1 2 0z"/><path fill="#fff" fill-opacity=".2" d="M341.273 54a1 1 0 1 1-2 0 1 1 0 0 1 2 0z"/><path fill="#fff" fill-opacity=".3" d="M365.273 54a1 1 0 1 1-2 0 1 1 0 0 1 2 0zm24 0a1 1 0 1 1-2 0 1 1 0 0 1 2 0zm24 0a1 1 0 1 1-2 0 1 1 0 0 1 2 0zm24 0a1 1 0 1 1-2 0 1 1 0 0 1 2 0zm23-1a1 1 0 1 1 0 2 1 1 0 0 1 0-2z"/><path fill="#fff" fill-opacity=".2" d="M484.273 53a1 1 0 1 1 0 2 1 1 0 0 1 0-2z"/><path fill="#fff" fill-opacity=".1" d="M508.273 53a1 1 0 1 1 0 2 1 1 0 0 1 0-2zm25 1a1 1 0 1 1-2 0 1 1 0 0 1 2 0z"/><path fill="#fff" fill-opacity=".2" d="M557.273 54a1 1 0 1 1-2 0 1 1 0 0 1 2 0z"/><path fill="#fff" fill-opacity=".3" d="M581.273 54a1 1 0 1 1-2 0 1 1 0 0 1 2 0z"/><path fill="#fff" fill-opacity=".4" d="M605.273 54a1 1 0 1 1-2 0 1 1 0 0 1 2 0z"/><path fill="#fff" fill-opacity=".8" d="M629.273 54a1 1 0 1 1-2 0 1 1 0 0 1 2 0z"/><path fill="#fff" fill-opacity=".4" d="M653.273 54a1 1 0 1 1-2 0 1 1 0 0 1 2 0z"/><path fill="#fff" fill-opacity=".3" d="M676.273 53a1 1 0 1 1 0 2 1 1 0 0 1 0-2z"/><path fill="#fff" fill-opacity=".2" d="M700.273 53a1 1 0 1 1 0 2 1 1 0 0 1 0-2z"/><path fill="#fff" fill-opacity=".1" d="M724.273 53a1 1 0 1 1 0 2 1 1 0 0 1 0-2zm25 1a1 1 0 1 1-2 0 1 1 0 0 1 2 0z"/><path fill="#fff" fill-opacity=".2" d="M773.273 54a1 1 0 1 1-2 0 1 1 0 0 1 2 0z"/><path fill="#fff" fill-opacity=".3" d="M797.273 54a1 1 0 1 1-2 0 1 1 0 0 1 2 0z"/><path fill="#fff" fill-opacity=".4" d="M821.273 54a1 1 0 1 1-2 0 1 1 0 0 1 2 0zm24 0a1 1 0 1 1-2 0 1 1 0 0 1 2 0zm24 0a1 1 0 1 1-2 0 1 1 0 0 1 2 0z"/><path fill="#fff" fill-opacity=".3" d="M893.273 54a1 1 0 1 1-2 0 1 1 0 0 1 2 0zm24 0a1 1 0 1 1-2 0 1 1 0 0 1 2 0zm24 0a1 1 0 1 1-2 0 1 1 0 0 1 2 0zm24 0a1 1 0 1 1-2 0 1 1 0 0 1 2 0zm23-1a1 1 0 1 1 0 2 1 1 0 0 1 0-2z"/><path fill="#fff" fill-opacity=".2" d="M1012.27 53c.55 0 1 .448 1 1s-.45 1-1 1-1-.448-1-1 .45-1 1-1z"/><path fill="#fff" fill-opacity=".8" d="M1036.27 53c.55 0 1 .448 1 1s-.45 1-1 1-1-.448-1-1 .45-1 1-1z"/><path fill="#fff" fill-opacity=".1" d="M1061.27 54c0 .552-.45 1-1 1s-1-.448-1-1 .45-1 1-1 1 .448 1 1z"/><path fill="#fff" fill-opacity=".2" d="M1085.27 54c0 .552-.45 1-1 1s-1-.448-1-1 .45-1 1-1 1 .448 1 1zm24 0c0 .552-.45 1-1 1s-1-.448-1-1 .45-1 1-1 1 .448 1 1z"/><path fill="#fff" fill-opacity=".8" d="M1133.27 54c0 .552-.45 1-1 1s-1-.448-1-1 .45-1 1-1 1 .448 1 1z"/><path fill="#fff" fill-opacity=".2" d="M1157.27 54c0 .552-.45 1-1 1s-1-.448-1-1 .45-1 1-1 1 .448 1 1zm24 0c0 .552-.45 1-1 1s-1-.448-1-1 .45-1 1-1 1 .448 1 1zm23-1c.55 0 1 .448 1 1s-.45 1-1 1-1-.448-1-1 .45-1 1-1zm24 0c.55 0 1 .448 1 1s-.45 1-1 1-1-.448-1-1 .45-1 1-1z"/><path fill="#fff" fill-opacity=".1" d="M1252.27 53c.55 0 1 .448 1 1s-.45 1-1 1-1-.448-1-1 .45-1 1-1zm25 1c0 .552-.45 1-1 1s-1-.448-1-1 .45-1 1-1 1 .448 1 1zm24 0c0 .552-.45 1-1 1s-1-.448-1-1 .45-1 1-1 1 .448 1 1zm24 0c0 .552-.45 1-1 1s-1-.448-1-1 .45-1 1-1 1 .448 1 1zm24 0c0 .552-.45 1-1 1s-1-.448-1-1 .45-1 1-1 1 .448 1 1zm24 0c0 .552-.45 1-1 1s-1-.448-1-1 .45-1 1-1 1 .448 1 1zm24 0c0 .552-.45 1-1 1s-1-.448-1-1 .45-1 1-1 1 .448 1 1zm23-1c.55 0 1 .448 1 1s-.45 1-1 1-1-.448-1-1 .45-1 1-1z"/></g></g><defs><radialGradient id="b" cx="0" cy="0" r="1" gradientTransform="matrix(1121.23 0 0 235.147 804.377 208.807)" gradientUnits="userSpaceOnUse"><stop stop-color="#51FCDD" stop-opacity=".6"/><stop offset="1" stop-opacity="0"/></radialGradient><clipPath id="a"><path fill="#fff" d="M0 0h1639v417H0z"/></clipPath></defs></svg>