<svg xmlns="http://www.w3.org/2000/svg" viewBox="0 0 2716.08 2318.92"><defs><linearGradient id="a" x1="1858.26" x2="858.04" y1="2791.8" y2="615.64" gradientTransform="matrix(1 0 0 -1 0 2316.57)" gradientUnits="userSpaceOnUse"><stop offset="0" stop-color="#4530ea"/><stop offset="1" stop-color="#74c2ff"/></linearGradient><linearGradient id="b" x1="2673.24" x2="1720.54" y1="2413.38" y2="340.63" gradientTransform="matrix(1 0 0 -1 0 2316.57)" gradientUnits="userSpaceOnUse"><stop offset="0" stop-color="#4530ea"/><stop offset="1" stop-color="#74c2ff"/></linearGradient><linearGradient id="c" x1="2131.05" x2="1709.47" y1="926.93" y2="1444.07" gradientTransform="matrix(1 0 0 -1 0 2316.57)" gradientUnits="userSpaceOnUse"><stop offset="0" stop-color="#3427ea"/><stop offset="1" stop-color="#74c2ff"/></linearGradient><linearGradient id="d" x1="1630.67" x2="1171.23" y1="245.69" y2="302.37" gradientTransform="matrix(1 0 0 -1 0 2316.57)" gradientUnits="userSpaceOnUse"><stop offset="0" stop-color="#4530ea"/><stop offset="1" stop-color="#74c2ff"/></linearGradient></defs><path d="M2716.08 0 806.7 1541.86 0 1226.19 2716.08 0z" style="fill:url(#a)"/><path d="m2716.08 0-481.3 2100.68-968.68-379.56L2716.08 0z" style="fill:url(#b)"/><path d="M2716.08 0 1266.1 1721.12l-95.37 597.8-364.03-777.06L2716.08 0z" style="fill:url(#c)"/><path d="m1170.73 2318.92 95.37-597.8" style="fill:none"/><path d="m1170.73 2318.92-57.96-655.49L2716.08 0 1266.1 1721.12l-95.37 597.8z" style="fill:#0000a0;isolation:isolate;opacity:.35"/><path d="m1170.73 2318.92 376.2-487.76-280.83-110.04-95.37 597.8z" style="fill:url(#d)"/><path d="m1266.1 1721.12 216.95 192.92 63.88-82.88-280.83-110.04z" style="opacity:.2;fill:#0000a0;isolation:isolate"/></svg>