<svg xmlns="http://www.w3.org/2000/svg" xmlns:xlink="http://www.w3.org/1999/xlink" viewBox="0 0 143 27">
  <defs>
    <!-- Favicon gradients -->
    <linearGradient id="fa" x1="1858.26" x2="858.04" y1="2791.8" y2="615.64" gradientTransform="matrix(1 0 0 -1 0 2316.57)" gradientUnits="userSpaceOnUse"><stop offset="0" stop-color="#4530ea"/><stop offset="1" stop-color="#74c2ff"/></linearGradient>
    <linearGradient id="fb" x1="2673.24" x2="1720.54" y1="2413.38" y2="340.63" gradientTransform="matrix(1 0 0 -1 0 2316.57)" gradientUnits="userSpaceOnUse"><stop offset="0" stop-color="#4530ea"/><stop offset="1" stop-color="#74c2ff"/></linearGradient>
    <linearGradient id="fc" x1="2131.05" x2="1709.47" y1="926.93" y2="1444.07" gradientTransform="matrix(1 0 0 -1 0 2316.57)" gradientUnits="userSpaceOnUse"><stop offset="0" stop-color="#3427ea"/><stop offset="1" stop-color="#74c2ff"/></linearGradient>
    <linearGradient id="fd" x1="1630.67" x2="1171.23" y1="245.69" y2="302.37" gradientTransform="matrix(1 0 0 -1 0 2316.57)" gradientUnits="userSpaceOnUse"><stop offset="0" stop-color="#4530ea"/><stop offset="1" stop-color="#74c2ff"/></linearGradient>
    <!-- Wordmark gradients -->
    <linearGradient id="wg1" x1="1337.2" y1="826.51" x2="1337.2" y2="-600.23" gradientTransform="translate(0 332.45) scale(1 -1)" gradientUnits="userSpaceOnUse"><stop offset="0" stop-color="#4530ea"/><stop offset="1" stop-color="#74c2ff"/></linearGradient>
    <linearGradient id="wg2" x1="1702.98" x2="1702.98" xlink:href="#wg1"/><linearGradient id="wg3" x1="1928.95" x2="1928.95" y2="-600.23" xlink:href="#wg1"/><linearGradient id="wg4" x1="2055.83" x2="2055.83" xlink:href="#wg1"/>
  </defs>

  <!-- Favicon icon: 27x27, vertically centered -->
  <g transform="translate(0, 0) scale(0.01165)">
    <path d="M2716.08 0 806.7 1541.86 0 1226.19 2716.08 0z" fill="url(#fa)"/>
    <path d="m2716.08 0-481.3 2100.68-968.68-379.56L2716.08 0z" fill="url(#fb)"/>
    <path d="M2716.08 0 1266.1 1721.12l-95.37 597.8-364.03-777.06L2716.08 0z" fill="url(#fc)"/>
    <path d="m1170.73 2318.92-57.96-655.49L2716.08 0 1266.1 1721.12l-95.37 597.8z" fill="#0000a0" opacity=".35"/>
    <path d="m1170.73 2318.92 376.2-487.76-280.83-110.04-95.37 597.8z" fill="url(#fd)"/>
    <path d="m1266.1 1721.12 216.95 192.92 63.88-82.88-280.83-110.04z" opacity=".2" fill="#0000a0"/>
  </g>

  <!-- Wordmark: 100x17, vertically centered at y=5 (centered in 27px height) -->
  <g transform="translate(35, 5) scale(0.04788)">
    <path fill="#000062" d="M0,4.88h134.7c34.48,0,64.82,7.08,91.02,21.23,26.18,14.16,46.52,34.16,61,60.03,14.47,25.86,21.72,55.72,21.72,89.55s-7.25,63.69-21.72,89.56c-14.48,25.86-34.82,45.87-61,60.03-26.19,14.16-56.54,21.23-91.02,21.23H0V4.88h0ZM134.7,285.99c20.81,0,39.2-4.56,55.15-13.67,15.94-9.1,28.38-22.03,37.34-38.8,8.94-16.75,13.42-36.03,13.42-57.83s-4.48-41.07-13.42-57.83c-8.95-16.76-21.48-29.69-37.58-38.8-16.11-9.11-34.4-13.66-54.9-13.66h-67.35v220.59h67.35,0Z"/>
    <path fill="#000062" d="M382.38,321.37c-18.06-20.01-27.09-47.09-27.09-81.25V105.42h64.91v130.8c0,18.22,4.64,32.54,13.91,42.95s21.72,15.62,37.34,15.62c17.24,0,31.15-5.86,41.73-17.57,10.57-11.71,15.86-26.84,15.86-45.39v-126.4h64.91v241.09h-56.13l-4.39-27.82c-9.44,10.42-20.91,18.47-34.4,24.16-13.5,5.69-28.23,8.54-44.17,8.54-30.26,0-54.41-10.01-72.47-30.02h-.01Z"/>
    <path fill="#000062" d="M704.47,337.24c-20.01-10.41-35.46-25.13-46.36-44.17-10.9-19.03-16.35-41.23-16.35-66.61s5.29-46.6,15.86-65.64,25.45-33.84,44.66-44.41c19.2-10.57,41.32-15.86,66.37-15.86,39.36,0,70.28,10.98,92.73,32.94s33.67,51.98,33.67,90.04c0,7.49-.49,15.45-1.47,23.91h-185.94c2.27,15.3,9.68,27.5,22.21,36.6,12.52,9.11,28.38,13.67,47.58,13.67,13.01,0,25.54-2.03,37.58-6.1,12.03-4.07,21.96-9.68,29.77-16.84l36.11,37.09c-12.69,13.02-28.3,23.1-46.85,30.26-18.55,7.16-38.24,10.74-59.05,10.74-27.01,0-50.51-5.21-70.52-15.62h0ZM832.58,204.49c-1.3-15.62-7.49-27.98-18.54-37.09-11.07-9.1-25.55-13.66-43.44-13.66s-31.32,4.48-42.22,13.42c-10.9,8.95-17.49,21.4-19.76,37.34h123.96Z"/>
    <path fill="#000062" d="M987.53,328.45c-14.48-14.64-21.72-37.09-21.72-67.35v-102.48h-43.44v-53.2h43.44v-61.49l64.42-6.83v68.32h64.91v53.2h-64.91v102.48c0,10.74,2.69,18.96,8.06,24.64,5.37,5.7,12.93,8.54,22.69,8.54s19.03-2.28,28.8-6.84l17.08,50.27c-9.76,4.56-19.28,7.81-28.55,9.76-9.27,1.95-19.44,2.93-30.5,2.93-25.71,0-45.8-7.32-60.27-21.96h-.01Z"/>
    <path fill="url(#wg1)" d="M1152.72,4.88h60.52l123.96,156.17L1460.67,4.88h61.01v341.62h-67.35V115.66l-110.3,138.11h-13.66l-110.3-138.11v230.84h-67.35V4.88h0Z"/>
    <path fill="url(#wg2)" fill-rule="evenodd" d="M1628.8,336.01c-17.73-10.57-31.56-25.45-41.48-44.66-9.93-19.19-14.89-40.99-14.89-65.4s4.96-46.2,14.89-65.4c9.92-19.19,23.75-34.08,41.48-44.66,17.73-10.57,37.98-15.86,60.76-15.86,16.91,0,32.61,2.93,47.09,8.78,14.47,5.86,26.6,14.32,36.36,25.38l4.39-28.8h56.13v241.09h-56.13l-4.39-29.28c-10.09,11.39-22.29,20.01-36.6,25.86-14.32,5.86-29.94,8.79-46.85,8.79-22.78,0-43.03-5.29-60.76-15.86v.02ZM1655.4,275.74c12.36,13.02,28.13,19.52,47.34,19.52s35.46-6.5,47.83-19.52c12.36-13.01,18.54-29.6,18.54-49.78s-6.18-36.76-18.54-49.78c-12.37-13.01-28.31-19.52-47.83-19.52s-34.98,6.51-47.34,19.52c-12.37,13.02-18.55,29.61-18.55,49.78s6.18,36.77,18.55,49.78Z"/>
    <path fill="url(#wg3)" d="M1900.39,10.74c7.48-7.16,16.92-10.74,28.31-10.74s20.9,3.58,28.55,10.74c7.64,7.16,11.47,16.27,11.47,27.33s-3.83,19.61-11.47,26.59c-7.65,7-17.17,10.49-28.55,10.49s-20.82-3.49-28.31-10.49c-7.49-6.99-11.22-15.86-11.22-26.59s3.74-20.17,11.22-27.33ZM1896,105.42h64.91v241.09h-64.91V105.42h0Z"/>
    <path fill="url(#wg4)" d="M2023.37,4.88h64.91v341.62h-64.91V4.88Z"/>
  </g>
</svg>
